<svg width="1915" height="1079" viewBox="0 0 1915 1079" fill="none" xmlns="http://www.w3.org/2000/svg">
<g clip-path="url(#clip0_321_1519)">
<g filter="url(#filter0_f_321_1519)">
<path d="M2207.79 79.9416L1839.64 -132.609C1813.34 -147.797 1770.68 -147.797 1744.38 -132.609L658.729 494.191C632.424 509.379 632.424 534.003 658.729 549.191L1026.88 761.742C1053.18 776.93 1095.84 776.93 1122.14 761.742L2207.79 134.942C2234.1 119.754 2234.1 95.1296 2207.79 79.9416Z" fill="url(#paint0_linear_321_1519)" fill-opacity="0.3"/>
</g>
<g filter="url(#filter1_f_321_1519)">
<path d="M1141.79 -40.0584L773.641 -252.609C747.334 -267.797 704.685 -267.797 678.379 -252.609L-407.271 374.191C-433.576 389.379 -433.576 414.003 -407.271 429.191L-39.1217 641.742C-12.8156 656.93 29.835 656.93 56.1411 641.742L1141.79 14.9416C1168.1 -0.246399 1168.1 -24.8704 1141.79 -40.0584Z" fill="url(#paint1_linear_321_1519)" fill-opacity="0.3"/>
</g>
<path d="M1982.31 63.0509L1614.16 -149.5C1587.86 -164.688 1545.2 -164.688 1518.9 -149.5L883.631 217.272C857.325 232.46 857.325 257.085 883.631 272.272L1251.78 484.823C1278.09 500.011 1320.74 500.011 1347.04 484.823L1982.31 118.051C2008.62 102.863 2008.62 78.2387 1982.31 63.0509Z" fill="url(#paint2_linear_321_1519)"/>
<path d="M1199.31 548.051L831.163 335.5C804.857 320.312 762.206 320.312 735.9 335.5L100.632 702.272C74.3257 717.46 74.3257 742.085 100.632 757.272L468.781 969.823C495.087 985.011 537.737 985.011 564.043 969.823L1199.31 603.051C1225.62 587.863 1225.62 563.239 1199.31 548.051Z" fill="url(#paint3_linear_321_1519)"/>
<path d="M2255.31 575.051L1887.16 362.5C1860.86 347.312 1818.2 347.312 1791.9 362.5L1156.63 729.272C1130.32 744.46 1130.32 769.085 1156.63 784.272L1524.78 996.823C1551.09 1012.01 1593.74 1012.01 1620.04 996.823L2255.31 630.051C2281.62 614.863 2281.62 590.239 2255.31 575.051Z" fill="url(#paint4_linear_321_1519)"/>
<path d="M1053.31 2.05087L685.163 -210.5C658.857 -225.688 616.206 -225.688 589.9 -210.5L-45.3681 156.272C-71.6742 171.46 -71.6742 196.085 -45.3681 211.272L322.781 423.823C349.087 439.011 391.737 439.011 418.043 423.823L1053.31 57.0509C1079.62 41.8631 1079.62 17.2387 1053.31 2.05087Z" fill="url(#paint5_linear_321_1519)"/>
<path d="M394.697 967V824.257L403.906 831.374H360.791V814.211H414.79V967H394.697ZM502.47 970.767C491.029 970.767 481.331 968.535 473.378 964.07C465.424 959.605 459.355 953.675 455.169 946.279C451.122 938.884 449.099 930.861 449.099 922.21H468.773C468.773 931.698 471.773 939.233 477.773 944.814C483.912 950.396 492.145 953.186 502.47 953.186C509.307 953.186 515.238 951.93 520.261 949.419C525.284 946.907 529.191 943.349 531.982 938.744C534.772 934 536.168 928.489 536.168 922.21C536.168 912.722 533.098 905.047 526.958 899.187C520.959 893.326 512.866 890.396 502.68 890.396C498.354 890.396 494.587 890.954 491.377 892.071C488.308 893.047 485.587 894.303 483.215 895.838L473.168 877.838L531.563 835.141L529.47 831.374H455.169V814.211H548.307V842.048L499.959 877.21L485.308 877.838C487.68 877.001 490.261 876.303 493.052 875.745C495.982 875.187 499.401 874.908 503.308 874.908C514.47 874.908 523.958 877.001 531.772 881.187C539.586 885.373 545.516 890.954 549.563 897.931C553.749 904.908 555.842 912.512 555.842 920.745V923.675C555.842 931.768 553.749 939.442 549.563 946.698C545.516 953.814 539.516 959.605 531.563 964.07C523.749 968.535 514.052 970.767 502.47 970.767ZM615.965 895.419C607.593 895.419 600.477 893.536 594.616 889.768C588.756 886.001 584.221 881.117 581.012 875.117C577.942 868.978 576.407 862.49 576.407 855.652V852.931C576.407 845.815 578.012 839.257 581.221 833.257C584.43 827.118 588.965 822.234 594.826 818.606C600.826 814.839 607.872 812.955 615.965 812.955C624.058 812.955 631.035 814.839 636.895 818.606C642.895 822.234 647.499 827.118 650.709 833.257C653.918 839.257 655.523 845.815 655.523 852.931V855.652C655.523 862.49 653.988 868.978 650.918 875.117C647.848 881.117 643.313 886.001 637.314 889.768C631.453 893.536 624.337 895.419 615.965 895.419ZM615.965 879.722C620.57 879.722 624.407 878.606 627.476 876.373C630.686 874.001 633.058 870.931 634.593 867.164C636.267 863.257 637.104 859.001 637.104 854.397C637.104 849.513 636.267 845.187 634.593 841.42C632.918 837.513 630.476 834.443 627.267 832.211C624.197 829.978 620.43 828.862 615.965 828.862C611.5 828.862 607.663 829.978 604.453 832.211C601.384 834.443 599.012 837.513 597.337 841.42C595.663 845.187 594.826 849.513 594.826 854.397C594.826 859.141 595.593 863.396 597.128 867.164C598.802 870.931 601.174 874.001 604.244 876.373C607.453 878.606 611.36 879.722 615.965 879.722ZM733.307 967V814.211H753.818V967H733.307ZM749.632 967V948.582H823.725V967H749.632ZM749.632 898.559V880.14H817.236V898.559H749.632ZM749.632 832.629V814.211H821.632V832.629H749.632ZM875.131 967.837V949H913.223C922.432 949 930.595 947.535 937.711 944.605C944.967 941.535 951.107 937.349 956.13 932.047C961.292 926.745 965.199 920.535 967.851 913.419C970.502 906.303 971.827 898.629 971.827 890.396C971.827 881.745 970.502 873.931 967.851 866.955C965.199 859.838 961.292 853.699 956.13 848.536C951.107 843.234 944.967 839.187 937.711 836.397C930.595 833.606 922.432 832.211 913.223 832.211H875.131V813.374H911.13C924.944 813.374 936.944 815.537 947.13 819.862C957.316 824.048 965.758 829.769 972.455 837.025C979.292 844.141 984.385 852.164 987.734 861.094C991.083 869.885 992.757 878.885 992.757 888.094V892.698C992.757 901.629 991.083 910.559 987.734 919.489C984.385 928.419 979.292 936.512 972.455 943.768C965.758 951.023 957.316 956.884 947.13 961.349C936.944 965.674 924.944 967.837 911.13 967.837H875.131ZM858.805 967.837V813.374H879.317V967.837H858.805ZM1024.78 967V814.211H1045.29V967H1024.78ZM1156.53 970.767C1142.57 970.767 1130.64 968.326 1120.74 963.442C1110.97 958.558 1103.09 952.209 1097.09 944.396C1091.09 936.582 1086.69 928.14 1083.9 919.07C1081.11 909.861 1079.71 901.001 1079.71 892.489V887.885C1079.71 878.675 1081.11 869.466 1083.9 860.257C1086.83 851.048 1091.3 842.676 1097.3 835.141C1103.3 827.606 1111.11 821.536 1120.74 816.932C1130.37 812.327 1141.88 810.025 1155.27 810.025C1168.95 810.025 1180.67 812.397 1190.43 817.141C1200.2 821.885 1207.95 828.513 1213.67 837.025C1219.39 845.536 1222.88 855.583 1224.13 867.164H1203.2C1202.09 858.513 1199.29 851.397 1194.83 845.815C1190.36 840.094 1184.71 835.839 1177.88 833.048C1171.18 830.257 1163.64 828.862 1155.27 828.862C1146.2 828.862 1138.25 830.467 1131.41 833.676C1124.57 836.746 1118.85 841.141 1114.25 846.862C1109.78 852.443 1106.37 858.931 1103.99 866.327C1101.76 873.722 1100.64 881.745 1100.64 890.396C1100.64 898.629 1101.76 906.443 1103.99 913.838C1106.37 921.233 1109.85 927.791 1114.46 933.512C1119.2 939.233 1125.06 943.768 1132.04 947.116C1139.02 950.326 1147.18 951.93 1156.53 951.93C1169.64 951.93 1180.67 948.651 1189.6 942.093C1198.53 935.535 1203.97 926.047 1205.92 913.628H1226.85C1225.46 924.093 1221.9 933.652 1216.18 942.303C1210.6 950.954 1202.78 957.861 1192.74 963.023C1182.83 968.186 1170.76 970.767 1156.53 970.767ZM1155.27 1018.91C1152.62 1018.91 1149.9 1018.7 1147.11 1018.28C1144.46 1017.86 1142.16 1017.37 1140.2 1016.81V1002.58C1142.3 1003.14 1144.74 1003.63 1147.53 1004.05C1150.32 1004.46 1152.9 1004.67 1155.27 1004.67C1160.02 1004.67 1163.57 1003.91 1165.95 1002.37C1168.32 1000.98 1169.5 999.162 1169.5 996.93C1169.5 994.837 1168.46 993.163 1166.37 991.907C1164.27 990.651 1161.2 990.023 1157.16 990.023H1148.78V964.907H1162.18V984.791L1152.97 977.046H1156.32C1164.55 977.046 1171.25 978.721 1176.41 982.07C1181.57 985.418 1184.16 990.232 1184.16 996.511C1184.16 1002.65 1181.57 1007.88 1176.41 1012.21C1171.39 1016.67 1164.34 1018.91 1155.27 1018.91ZM1239.01 967L1294.05 814.211H1328.79L1385.52 967H1364.38L1313.1 827.606L1323.14 832.629H1298.45L1309.12 827.606L1259.52 967H1239.01ZM1271.87 921.373L1278.77 902.954H1344.7L1351.61 921.373H1271.87ZM1329.21 797.048C1325.45 797.048 1322.17 796.56 1319.38 795.583C1316.73 794.607 1314.28 793.49 1312.05 792.234C1309.82 790.979 1307.52 789.862 1305.14 788.886C1302.91 787.909 1300.19 787.421 1296.98 787.421C1293.63 787.421 1290.35 788.188 1287.14 789.723C1284.07 791.118 1281.56 793.141 1279.61 795.793L1275.84 782.816C1277.8 780.025 1280.66 777.653 1284.42 775.7C1288.19 773.746 1292.52 772.77 1297.4 772.77C1301.17 772.77 1304.38 773.258 1307.03 774.235C1309.82 775.211 1312.33 776.328 1314.56 777.583C1316.8 778.839 1319.1 779.956 1321.47 780.932C1323.84 781.909 1326.56 782.397 1329.63 782.397C1332.98 782.397 1336.19 781.7 1339.26 780.304C1342.47 778.77 1345.05 776.677 1347 774.025L1350.77 787.002C1348.68 789.793 1345.75 792.165 1341.98 794.118C1338.35 796.072 1334.1 797.048 1329.21 797.048ZM1477.07 970.767C1463.39 970.767 1451.6 968.326 1441.7 963.442C1431.79 958.558 1423.63 952.14 1417.21 944.186C1410.79 936.233 1405.98 927.721 1402.77 918.652C1399.7 909.582 1398.16 900.861 1398.16 892.489V887.885C1398.16 878.815 1399.77 869.675 1402.98 860.466C1406.18 851.257 1411.07 842.885 1417.63 835.35C1424.18 827.676 1432.35 821.536 1442.11 816.932C1452.02 812.327 1463.67 810.025 1477.07 810.025C1490.46 810.025 1502.04 812.327 1511.81 816.932C1521.72 821.536 1529.95 827.676 1536.51 835.35C1543.07 842.885 1547.95 851.257 1551.16 860.466C1554.37 869.675 1555.97 878.815 1555.97 887.885V892.489C1555.97 900.861 1554.37 909.582 1551.16 918.652C1548.09 927.721 1543.35 936.233 1536.93 944.186C1530.51 952.14 1522.35 958.558 1512.44 963.442C1502.53 968.326 1490.74 970.767 1477.07 970.767ZM1477.07 951.93C1486 951.93 1494.02 950.256 1501.14 946.907C1508.39 943.558 1514.53 939.024 1519.56 933.303C1524.58 927.442 1528.42 920.884 1531.07 913.628C1533.72 906.233 1535.04 898.489 1535.04 890.396C1535.04 881.885 1533.72 873.931 1531.07 866.536C1528.42 859.141 1524.58 852.652 1519.56 847.071C1514.53 841.35 1508.39 836.885 1501.14 833.676C1494.02 830.467 1486 828.862 1477.07 828.862C1468.14 828.862 1460.04 830.467 1452.79 833.676C1445.67 836.885 1439.6 841.35 1434.58 847.071C1429.56 852.652 1425.72 859.141 1423.07 866.536C1420.42 873.931 1419.09 881.885 1419.09 890.396C1419.09 898.489 1420.42 906.233 1423.07 913.628C1425.72 920.884 1429.56 927.442 1434.58 933.303C1439.6 939.024 1445.67 943.558 1452.79 946.907C1460.04 950.256 1468.14 951.93 1477.07 951.93Z" fill="url(#paint6_linear_321_1519)"/>
</g>
<defs>
<filter id="filter0_f_321_1519" x="389" y="-394" width="2088.52" height="1417.13" filterUnits="userSpaceOnUse" color-interpolation-filters="sRGB">
<feFlood flood-opacity="0" result="BackgroundImageFix"/>
<feBlend mode="normal" in="SourceGraphic" in2="BackgroundImageFix" result="shape"/>
<feGaussianBlur stdDeviation="125" result="effect1_foregroundBlur_321_1519"/>
</filter>
<filter id="filter1_f_321_1519" x="-677" y="-514" width="2088.52" height="1417.13" filterUnits="userSpaceOnUse" color-interpolation-filters="sRGB">
<feFlood flood-opacity="0" result="BackgroundImageFix"/>
<feBlend mode="normal" in="SourceGraphic" in2="BackgroundImageFix" result="shape"/>
<feGaussianBlur stdDeviation="125" result="effect1_foregroundBlur_321_1519"/>
</filter>
<linearGradient id="paint0_linear_321_1519" x1="2255.42" y1="107.442" x2="1408.14" y2="-532.911" gradientUnits="userSpaceOnUse">
<stop stop-color="#53593E"/>
<stop offset="1" stop-color="#B2BA91"/>
</linearGradient>
<linearGradient id="paint1_linear_321_1519" x1="1189.42" y1="-12.5584" x2="342.143" y2="-652.911" gradientUnits="userSpaceOnUse">
<stop stop-color="#53593E"/>
<stop offset="1" stop-color="#B2BA91"/>
</linearGradient>
<linearGradient id="paint2_linear_321_1519" x1="1798.24" y1="-43.2246" x2="1432.97" y2="589.434" gradientUnits="userSpaceOnUse">
<stop stop-color="#B2BA91" stop-opacity="0.3"/>
<stop offset="1" stop-color="#F3F0F5" stop-opacity="0"/>
</linearGradient>
<linearGradient id="paint3_linear_321_1519" x1="1015.24" y1="441.775" x2="649.971" y2="1074.43" gradientUnits="userSpaceOnUse">
<stop stop-color="#B2BA91" stop-opacity="0.3"/>
<stop offset="1" stop-color="#F3F0F5" stop-opacity="0"/>
</linearGradient>
<linearGradient id="paint4_linear_321_1519" x1="2071.24" y1="468.775" x2="1705.97" y2="1101.43" gradientUnits="userSpaceOnUse">
<stop stop-color="#B2BA91" stop-opacity="0.3"/>
<stop offset="1" stop-color="#F3F0F5" stop-opacity="0"/>
</linearGradient>
<linearGradient id="paint5_linear_321_1519" x1="869.237" y1="-104.225" x2="503.971" y2="528.434" gradientUnits="userSpaceOnUse">
<stop stop-color="#B2BA91" stop-opacity="0.3"/>
<stop offset="1" stop-color="#F3F0F5" stop-opacity="0"/>
</linearGradient>
<linearGradient id="paint6_linear_321_1519" x1="960" y1="1015" x2="959.673" y2="602.279" gradientUnits="userSpaceOnUse">
<stop stop-color="#53593E" stop-opacity="0"/>
<stop offset="0.609375" stop-color="#B2BA91"/>
</linearGradient>
<clipPath id="clip0_321_1519">
<rect width="1920" height="1080" fill="white" transform="translate(-5 -1)"/>
</clipPath>
</defs>
</svg>
