<svg width="132" height="89" viewBox="0 0 132 89" fill="none" xmlns="http://www.w3.org/2000/svg">
<g clip-path="url(#clip0_301_474)">
<path d="M99.8835 24.5338C99.9871 21.3172 101.342 20.0332 105.82 20.0332H130.5V11.0229H107.381C96.4452 11.0229 90.302 15.8479 90.302 24.9604C90.302 42.7587 121.855 39.1155 121.855 48.5523C121.855 51.769 120.186 53.4884 115.919 53.4884H83.6368C86.9025 49.3831 88.8913 44.0916 88.8913 38.0448C88.8913 22.8189 79.3141 9.95216 63.0716 9.95216C48.3865 9.95216 37.8732 21.3172 37.8732 38.258V42.4655H26.7558C18.1148 42.4655 9.57722 36.6764 9.57722 25.7379C9.57722 14.7994 18.1148 9.01026 26.7558 9.01026H33.8395V0H25.0906C13.434 0 0 9.22352 0 25.7334C0 42.2434 13.434 51.4669 25.0906 51.4669H37.8775V88.8586H47.0406V51.4669H64.4823V42.4655H47.0406V39.973C47.0406 25.8179 54.3313 18.958 63.0759 18.958C72.8602 18.958 79.7325 26.3554 79.7325 36.863C79.7325 45.8954 74.9827 51.7557 67.4763 53.484H55.7895V62.4898H115.919C124.771 62.4898 131.437 57.878 131.437 48.1213C131.437 29.6788 99.78 33.433 99.8835 24.5338Z" fill="#F2E9D8"/>
<path d="M63.2961 75.9165C62.8043 76.1431 61.8207 76.3697 60.5653 76.3697C57.649 76.3697 55.4531 74.6769 55.4531 71.5535C55.4531 68.5723 57.649 66.5508 60.8543 66.5508C62.1442 66.5508 62.9553 66.8085 63.3134 66.9773L62.9898 67.9814C62.4807 67.7548 61.7603 67.586 60.9018 67.586C58.4773 67.586 56.8681 69.0122 56.8681 71.5135C56.8681 73.8461 58.322 75.3389 60.8414 75.3389C61.6568 75.3389 62.4851 75.1834 63.02 74.9435L63.2961 75.9165Z" fill="#12120D"/>
<path d="M65.5047 73.0375C65.5349 74.7169 66.7041 75.41 68.0544 75.41C69.025 75.41 69.6031 75.2545 70.1079 75.0591L70.3408 75.9432C69.8663 76.1387 69.0509 76.3697 67.8689 76.3697C65.5824 76.3697 64.2148 74.9835 64.2148 72.922C64.2148 70.8605 65.5349 69.2344 67.7006 69.2344C70.1251 69.2344 70.7679 71.1981 70.7679 72.4555C70.7679 72.7087 70.7377 72.9087 70.7204 73.0331H65.5047V73.0375ZM69.4607 72.1445C69.478 71.3537 69.107 70.1274 67.5884 70.1274C66.2209 70.1274 65.6255 71.2826 65.5134 72.1445H69.4607Z" fill="#12120D"/>
<path d="M72.4422 71.2381C72.4422 70.5317 72.4293 69.9541 72.3818 69.3899H73.5811L73.6545 70.5184H73.6847C74.0514 69.8697 74.9099 69.2344 76.1394 69.2344C77.1661 69.2344 78.7623 69.7986 78.7623 72.1445V76.2275H77.4077V72.2867C77.4077 71.1848 76.9634 70.2651 75.6907 70.2651C74.802 70.2651 74.1075 70.8427 73.8788 71.5358C73.8184 71.6913 73.7882 71.9001 73.7882 72.1134V76.2231H72.4379V71.2381H72.4422Z" fill="#12120D"/>
<path d="M82.5241 67.4258V69.3896H84.4568V70.3359H82.5241V74.0235C82.5241 74.8677 82.783 75.3475 83.5336 75.3475C83.8874 75.3475 84.1505 75.3075 84.3145 75.2631L84.3792 76.1961C84.116 76.2939 83.7019 76.365 83.1799 76.365C82.55 76.365 82.0453 76.1828 81.7217 75.8407C81.3378 75.4719 81.1997 74.8632 81.1997 74.0635V70.3315H80.0479V69.3851H81.1997V67.7457L82.5241 67.4258Z" fill="#12120D"/>
<path d="M85.9754 71.5225C85.9754 70.7183 85.9625 70.0252 85.915 69.3899H87.0971L87.1446 70.7316H87.2049C87.5414 69.8164 88.3525 69.2344 89.2584 69.2344C89.4094 69.2344 89.5173 69.2521 89.6424 69.2788V70.4473C89.5043 70.4206 89.3706 70.4073 89.1851 70.4073C88.236 70.4073 87.5587 71.0737 87.3732 72.0023C87.343 72.1711 87.3128 72.3711 87.3128 72.5799V76.2231H85.9754V71.5225Z" fill="#12120D"/>
<path d="M97.5629 72.7531C97.5629 75.2812 95.6561 76.383 93.8657 76.383C91.8554 76.383 90.3066 75.0279 90.3066 72.8687C90.3066 70.5805 91.933 69.2388 93.9908 69.2388C96.1177 69.2343 97.5629 70.6605 97.5629 72.7531ZM91.6742 72.8242C91.6742 74.3215 92.606 75.45 93.9261 75.45C95.216 75.45 96.1824 74.3348 96.1824 72.7976C96.1824 71.638 95.5525 70.1673 93.9563 70.1673C92.3601 70.1673 91.6742 71.5224 91.6742 72.8242Z" fill="#12120D"/>
<path d="M56.0654 79.2218C56.7082 79.1241 57.5581 79.0308 58.6323 79.0308C59.9481 79.0308 60.9188 79.3195 61.5313 79.826C62.0965 80.2792 62.4373 80.9723 62.4373 81.8209C62.4373 82.6828 62.1655 83.3626 61.6392 83.8558C60.9317 84.5489 59.7841 84.9043 58.4813 84.9043C58.0801 84.9043 57.7134 84.891 57.4071 84.8199V88.6319H56.0697V79.2218H56.0654ZM57.4028 83.8158C57.6961 83.8824 58.0585 83.9135 58.5072 83.9135C60.1206 83.9135 61.0999 83.1893 61.0999 81.8787C61.0999 80.6213 60.1293 80.0126 58.6625 80.0126C58.0801 80.0126 57.6357 80.0571 57.4028 80.1148V83.8158Z" fill="#12120D"/>
<path d="M67.8988 88.6319L67.7909 87.77H67.7478C67.3336 88.3076 66.5355 88.7874 65.4743 88.7874C63.9687 88.7874 63.2051 87.8144 63.2051 86.8236C63.2051 85.1708 64.8013 84.2645 67.6701 84.2778V84.1356C67.6701 83.5714 67.5019 82.5584 65.9833 82.5584C65.2931 82.5584 64.5726 82.7539 64.0506 83.0649L63.74 82.243C64.3569 81.8786 65.2456 81.6343 66.1775 81.6343C68.451 81.6343 69.0075 83.0605 69.0075 84.4333V86.9924C69.0075 87.5834 69.0377 88.1654 69.1283 88.6319H67.8988ZM67.7003 85.1397C66.2249 85.1131 64.5554 85.353 64.5554 86.6814C64.5554 87.4856 65.1335 87.8677 65.828 87.8677C66.7987 87.8677 67.4113 87.3034 67.627 86.7259C67.6744 86.597 67.7047 86.4548 67.7047 86.3304V85.1397H67.7003Z" fill="#12120D"/>
<path d="M77.3984 86.7661C77.3984 87.4725 77.4113 88.0946 77.4588 88.6277H76.2638L76.1861 87.5125H76.1559C75.8065 88.0635 75.0213 88.7832 73.7012 88.7832C72.5364 88.7832 71.1387 88.1923 71.1387 85.7887V81.79H72.489V85.5799C72.489 86.8816 72.9204 87.7524 74.1499 87.7524C75.0515 87.7524 75.6814 87.1749 75.9273 86.6239C76.0006 86.4418 76.0481 86.2152 76.0481 85.9886V81.79H77.4027V86.7661H77.3984Z" fill="#12120D"/>
<path d="M80.9923 78.5996H79.6377V88.6317H80.9923V78.5996Z" fill="#12120D"/>
<path d="M87.3728 88.6319L87.265 87.77H87.2175C86.8034 88.3076 86.0053 88.7874 84.944 88.7874C83.4427 88.7874 82.6748 87.8144 82.6748 86.8236C82.6748 85.1708 84.271 84.2645 87.1399 84.2778V84.1356C87.1399 83.5714 86.9716 82.5584 85.4531 82.5584C84.7585 82.5584 84.0424 82.7539 83.516 83.0649L83.2098 82.243C83.8223 81.8786 84.7154 81.6343 85.6472 81.6343C87.9207 81.6343 88.4729 83.0605 88.4729 84.4333V86.9924C88.4729 87.5834 88.5031 88.1654 88.5937 88.6319H87.3728ZM87.1744 85.1397C85.7033 85.1131 84.0251 85.353 84.0251 86.6814C84.0251 87.4856 84.6075 87.8677 85.2978 87.8677C86.2641 87.8677 86.881 87.3034 87.0924 86.7259C87.1399 86.597 87.1701 86.4548 87.1701 86.3304V85.1397H87.1744Z" fill="#12120D"/>
<path d="M93.7748 87.1349C94.3745 87.477 95.2502 87.757 96.1648 87.757C97.5324 87.757 98.3305 87.095 98.3305 86.1353C98.3305 85.2467 97.7783 84.7358 96.3848 84.2426C94.6937 83.6917 93.654 82.8875 93.654 81.5457C93.654 80.0618 94.9871 78.96 96.9974 78.96C98.0544 78.96 98.8266 79.1821 99.2839 79.4265L98.9129 80.4306C98.5764 80.2617 97.8861 79.9774 96.9456 79.9774C95.5349 79.9774 94.9957 80.7549 94.9957 81.4036C94.9957 82.2922 95.6255 82.732 97.0578 83.2385C98.805 83.8605 99.6937 84.638 99.6937 86.0375C99.6937 87.5081 98.5117 88.7788 96.0699 88.7788C95.0733 88.7788 93.9819 88.5123 93.4297 88.1701L93.7748 87.1349Z" fill="#12120D"/>
<path d="M108.292 85.1575C108.292 87.6855 106.389 88.7873 104.59 88.7873C102.58 88.7873 101.031 87.4322 101.031 85.2685C101.031 82.9804 102.658 81.6387 104.715 81.6387C106.847 81.6387 108.292 83.0649 108.292 85.1575ZM102.399 85.2241C102.399 86.7214 103.335 87.8543 104.655 87.8543C105.945 87.8543 106.911 86.7347 106.911 85.1975C106.911 84.0423 106.281 82.5717 104.69 82.5717C103.089 82.5717 102.399 83.9268 102.399 85.2241Z" fill="#12120D"/>
<path d="M116.208 86.7661C116.208 87.4725 116.226 88.0946 116.273 88.6277H115.069L114.996 87.5125H114.966C114.612 88.0635 113.831 88.7832 112.507 88.7832C111.342 88.7832 109.944 88.1923 109.944 85.7887V81.79H111.295V85.5799C111.295 86.8816 111.722 87.7524 112.951 87.7524C113.857 87.7524 114.487 87.1749 114.733 86.6239C114.806 86.4418 114.854 86.2152 114.854 85.9886V81.79H116.204V86.7661H116.208Z" fill="#12120D"/>
<path d="M117.602 87.9123L120.962 83.887C121.281 83.5227 121.592 83.1939 121.929 82.8296V82.8029H117.908V81.7988H123.572L123.555 82.5808L120.237 86.5483C119.931 86.9304 119.625 87.2725 119.288 87.6235V87.6502H123.633V88.6409H117.602V87.9123Z" fill="#12120D"/>
<path d="M129.124 88.6319L129.021 87.77H128.973C128.559 88.3076 127.761 88.7874 126.704 88.7874C125.199 88.7874 124.431 87.8144 124.431 86.8236C124.431 85.1708 126.027 84.2645 128.896 84.2778V84.1356C128.896 83.5714 128.727 82.5584 127.209 82.5584C126.514 82.5584 125.798 82.7539 125.272 83.0649L124.966 82.243C125.578 81.8786 126.471 81.6343 127.407 81.6343C129.677 81.6343 130.229 83.0605 130.229 84.4333V86.9924C130.229 87.5834 130.259 88.1654 130.35 88.6319H129.124ZM128.93 85.1397C127.455 85.1131 125.785 85.353 125.785 86.6814C125.785 87.4856 126.368 87.8677 127.062 87.8677C128.029 87.8677 128.641 87.3034 128.857 86.7259C128.904 86.597 128.935 86.4548 128.935 86.3304V85.1397H128.93Z" fill="#12120D"/>
</g>
<defs>
<clipPath id="clip0_301_474">
<rect width="131.437" height="88.8586" fill="white"/>
</clipPath>
</defs>
</svg>
