<svg width="72" height="72" viewBox="0 0 72 72" fill="none" xmlns="http://www.w3.org/2000/svg">
<path d="M0 15C0 6.71573 6.71573 0 15 0H57C65.2843 0 72 6.71573 72 15V57C72 65.2843 65.2843 72 57 72H15C6.71573 72 0 65.2843 0 57V15Z" fill="#FEFBFF"/>
<path d="M43.0854 23.0792C44.8088 26.502 46.7242 30.3679 48.2555 33.3496C43.3727 35.559 40.5004 38.872 37.8203 41.9634C35.2352 44.9451 33.0326 47.4858 28.9163 49.0305C27.5753 46.3801 25.5648 42.2947 23.7463 38.7601C28.6291 36.5508 31.5013 33.2377 34.1815 30.1463C36.7665 27.1646 38.9673 24.5142 43.0854 23.0792ZM44.9991 18C31.0221 20.9817 31.9789 33.0183 18 36L26.9991 54C40.9779 51.0183 40.0211 38.9817 54 36L44.9991 18Z" fill="url(#paint0_linear_364_580)"/>
<path d="M39.5992 33.6724C41.398 37.2649 41.2956 41.2139 39.373 42.4956C37.4486 43.7753 34.4328 41.9034 32.6341 38.3109C30.8371 34.7184 30.9394 30.7694 32.862 29.4877C34.7847 28.208 37.8023 30.0799 39.5992 33.6724Z" fill="url(#paint1_linear_364_580)"/>
<defs>
<linearGradient id="paint0_linear_364_580" x1="36" y1="18" x2="36" y2="54" gradientUnits="userSpaceOnUse">
<stop stop-color="#B2BA91"/>
<stop offset="1" stop-color="#53593E"/>
</linearGradient>
<linearGradient id="paint1_linear_364_580" x1="36" y1="18" x2="36" y2="54" gradientUnits="userSpaceOnUse">
<stop stop-color="#B2BA91"/>
<stop offset="1" stop-color="#53593E"/>
</linearGradient>
</defs>
</svg>
