<svg width="198" height="90" viewBox="0 0 198 90" fill="none" xmlns="http://www.w3.org/2000/svg">
<path d="M70.4935 84.6282V70.2553H65.6719V67.5762H78.4163V70.2553H73.6344V84.6282H70.4935Z" fill="black"/>
<path d="M86.1716 84.6273V83.2277L84.9188 83.9164C83.8027 84.5117 82.9381 84.7872 81.7558 84.7872C79.6163 84.7872 78.1826 83.3877 78.1826 81.3484C78.1826 78.8292 80.1413 77.6607 82.6204 77.6607H86.1936V76.9499C86.1936 75.3904 85.307 74.6351 83.7365 74.6351C82.0999 74.6351 81.1426 75.3237 81.1426 76.7455H78.4561V76.5855C78.4561 73.8576 80.5956 72.3203 83.7145 72.3203C86.9921 72.3203 88.8802 73.9686 88.8802 76.8566V84.6273H86.1716ZM86.1716 79.6289H82.9866C81.3235 79.6289 80.9397 80.4065 80.9397 81.2106C80.9397 82.0592 81.4647 82.5613 82.3734 82.5613C83.1233 82.5613 83.763 82.3347 84.4423 81.9659L86.1716 81.024V79.6289Z" fill="black"/>
<path d="M99.5292 88.8458V83.301L98.1661 84.0563C97.2353 84.5584 96.3663 84.7672 95.4796 84.7672C93.0004 84.7672 91.3594 83.0922 91.3594 80.6397V76.5833C91.3594 74.1308 93.0445 72.3892 95.5237 72.3892C96.3663 72.3892 97.2309 72.5935 98.1661 73.1L99.5557 73.8553V72.5491H102.242V88.8458H99.5292ZM99.5292 76.4233L97.6191 75.3482C97.1162 75.0727 96.5736 74.8905 95.934 74.8905C94.7958 74.8905 94.0459 75.6725 94.0459 76.8632V80.302C94.0459 81.4927 94.7958 82.2747 95.934 82.2747C96.5736 82.2747 97.1162 82.0925 97.6191 81.7904L99.5292 80.7374V76.4233Z" fill="black"/>
<path d="M112.746 84.6297V83.2302L111.471 83.9855C110.628 84.5142 109.764 84.763 108.806 84.763C106.464 84.763 105.03 83.1813 105.03 80.8443V72.5449H107.805V80.4978C107.805 81.5508 108.418 82.2616 109.398 82.2616C109.989 82.2616 110.465 82.0306 110.968 81.7329L112.719 80.7022V72.5449H115.472V84.6253H112.746V84.6297Z" fill="black"/>
<path d="M125.879 84.6273V83.2277L124.626 83.9164C123.51 84.5117 122.645 84.7872 121.463 84.7872C119.323 84.7872 117.89 83.3877 117.89 81.3484C117.89 78.8292 119.848 77.6607 122.327 77.6607H125.901V76.9499C125.901 75.3904 125.014 74.6351 123.444 74.6351C121.803 74.6351 120.85 75.3237 120.85 76.7455H118.163V76.5855C118.163 73.8576 120.303 72.3203 123.421 72.3203C126.699 72.3203 128.587 73.9686 128.587 76.8566V84.6273H125.879ZM125.879 79.6289H122.694C121.031 79.6289 120.647 80.4065 120.647 81.2106C120.647 82.0592 121.172 82.5613 122.08 82.5613C122.83 82.5613 123.47 82.3347 124.154 81.9659L125.883 81.024V79.6289H125.879Z" fill="black"/>
<path d="M131.312 84.6268V72.5464H134.065V74.2658L134.586 73.7371C135.472 72.8885 136.364 72.4531 137.546 72.4531H138.252V75.2699H137.568C136.522 75.2699 135.839 75.4788 135.04 76.0963L134.109 76.8738V84.6223H131.312V84.6268Z" fill="black"/>
<path d="M143.051 69.2914C143.051 70.14 142.389 70.5977 141.481 70.5977C140.594 70.5977 139.91 70.14 139.91 69.2914V68.7894C139.91 67.9186 140.594 67.4609 141.481 67.4609C142.389 67.4609 143.051 67.9186 143.051 68.7894V69.2914ZM140.073 72.5481H142.897V84.6285H140.073V72.5481Z" fill="black"/>
<path d="M151.222 84.6273C148.447 84.6273 146.647 83.2278 146.647 80.4776V74.9062H144.825V72.547H146.647V69.2681H149.47V72.547H152.792V74.9062H149.47V80.3132C149.47 81.735 150.106 82.2148 151.451 82.2148H152.863V84.6229H151.222V84.6273Z" fill="black"/>
<path d="M158.046 69.2914C158.046 70.14 157.384 70.5977 156.476 70.5977C155.589 70.5977 154.905 70.14 154.905 69.2914V68.7894C154.905 67.9186 155.589 67.4609 156.476 67.4609C157.384 67.4609 158.046 67.9186 158.046 68.7894V69.2914ZM155.068 72.5481H157.892V84.6285H155.068V72.5481Z" fill="black"/>
<path d="M168.47 84.6331V76.7025C168.47 75.7872 167.971 74.9164 166.877 74.9164C166.264 74.9164 165.81 75.1475 165.307 75.4451L163.555 76.4981V84.6331H160.803V72.5528H163.533V73.9745L164.808 73.197C165.717 72.6239 166.56 72.4417 167.468 72.415C169.811 72.415 171.244 73.9967 171.244 76.3337V84.6287H168.47V84.6331Z" fill="black"/>
<path d="M176.432 80.2475C175.885 80.2475 175.611 80.5007 175.611 81.0516C175.611 81.5359 175.907 81.8069 176.383 81.8069H181.024C183.799 81.8069 185.325 82.8821 185.325 85.1303C185.325 87.6494 183.071 89.0045 179.82 89.0045C176.132 89.0045 174.473 87.3295 174.473 84.4194V83.2065C173.723 82.8644 173.291 82.1757 173.291 81.0516C173.291 79.7454 173.975 78.9679 174.906 78.7146C174.906 78.7146 174.041 78.026 174.041 76.4221C174.041 73.8541 175.814 72.5479 178.457 72.5479H185.396V74.8848H183.689C183.689 74.8848 184.28 75.3691 184.28 76.5376C184.28 78.8524 182.595 80.2519 179.935 80.2519H176.432V80.2475ZM179.551 78.2304C181.006 78.2304 181.827 77.6794 181.827 76.4443C181.827 75.2536 181.077 74.6805 179.78 74.6805H178.735C177.438 74.6805 176.639 75.0937 176.639 76.4887C176.639 77.7017 177.389 78.2304 178.686 78.2304H179.551ZM176.93 83.8462V84.3483C176.93 85.9966 177.614 86.9163 179.776 86.9163C181.686 86.9163 182.687 86.3876 182.687 85.1969C182.687 84.1661 181.889 83.8462 180.64 83.8462H176.93Z" fill="black"/>
<path d="M194.77 84.6273V83.2277L193.517 83.9164C192.401 84.5117 191.537 84.7872 190.354 84.7872C188.215 84.7872 186.781 83.3877 186.781 81.3484C186.781 78.8292 188.74 77.6607 191.219 77.6607H194.792V76.9499C194.792 75.3904 193.906 74.6351 192.335 74.6351C190.699 74.6351 189.741 75.3237 189.741 76.7455H187.055V76.5855C187.055 73.8576 189.194 72.3203 192.313 72.3203C195.591 72.3203 197.479 73.9686 197.479 76.8566V84.6273H194.77ZM194.77 79.6289H191.585C189.922 79.6289 189.538 80.4065 189.538 81.2106C189.538 82.0592 190.063 82.5613 190.972 82.5613C191.722 82.5613 192.357 82.3347 193.041 81.9659L194.77 81.024V79.6289Z" fill="black"/>
<path d="M10.5742 34.5575V58.8649H0.0751953V0.146973H37.9247V9.46382H10.5742V25.2407H35.5734V34.5575H10.5742Z" fill="#F2E9D8"/>
<path d="M197.334 43.7125C197.334 54.1267 190.196 59.5738 179.459 59.5738C168.806 59.5738 161.677 53.6558 161.677 43.3171V32.9783C161.677 22.6396 168.806 16.6372 179.459 16.6372C190.196 16.6372 197.334 22.1598 197.334 32.5829V33.2938H188.167C188.167 27.3714 184.947 24.9277 179.459 24.9277C174.055 24.9277 170.923 27.7623 170.923 33.7647V42.4418C170.923 48.4442 174.059 51.2833 179.459 51.2833C184.947 51.2833 188.167 48.9196 188.167 42.9972H197.334V43.7125Z" fill="#F2E9D8"/>
<path d="M69.7656 58.8656V54.0539L65.4557 56.422C61.6178 58.4747 58.6401 59.4254 54.5596 59.4254C47.1971 59.4254 42.2607 54.6093 42.2607 47.585C42.2607 38.9035 49.0013 34.8738 57.5461 34.8738H69.8494V32.4301C69.8494 27.0586 66.7879 24.4551 61.3796 24.4551C55.7374 24.4551 52.4466 26.8231 52.4466 31.7104H43.2004V31.1639C43.2004 21.7671 50.5717 16.48 61.3046 16.48C72.5888 16.48 79.0956 22.1581 79.0956 32.1014V58.8568H69.7656V58.8656ZM69.7656 41.6581H58.7989C53.0774 41.6581 51.7408 44.3417 51.7408 47.1052C51.7408 50.0242 53.5406 51.7614 56.6815 51.7614C59.2665 51.7614 61.459 50.9705 63.8146 49.7087L69.7656 46.4743V41.6581Z" fill="#F2E9D8"/>
<path d="M106.389 58.8633C96.8254 58.8633 90.6362 54.0516 90.6362 44.5792V25.399H84.3633V17.2685H90.6362V5.9834H100.35V17.2685H111.789V25.399H100.35V44.0239C100.35 48.92 102.547 50.5772 107.161 50.5772H112.027V58.8633H106.389Z" fill="#F2E9D8"/>
<path d="M153.423 45.7651C153.423 54.2112 146.21 59.5782 135.319 59.5782C124.665 59.5782 117.064 53.7358 117.064 43.557V33.6892C117.064 23.1905 124.661 16.6372 135.319 16.6372C146.056 16.6372 153.498 22.8751 153.498 33.8492V41.1845H126.072V43.2371C126.072 49.1595 129.99 51.7631 135.394 51.7631C140.731 51.7631 144.331 49.8704 144.331 45.3697H153.423V45.7651ZM144.565 33.6892C144.565 27.7668 141.12 24.5323 135.394 24.5323C129.602 24.5323 126.072 27.7668 126.072 33.7692V34.7911H144.565V33.6892Z" fill="#F2E9D8"/>
</svg>
