<svg width="102" height="102" viewBox="0 0 102 102" fill="none" xmlns="http://www.w3.org/2000/svg">
<g filter="url(#filter0_d_521_542)">
<rect x="30" y="26" width="41.6156" height="41.6156" rx="20.8078" fill="white"/>
</g>
<path d="M52.2782 48.6135V57.9052H48.0654V48.6135H44.5654V44.8459H48.0654V43.4752C48.0654 38.3861 50.1637 35.7102 54.6034 35.7102C55.9645 35.7102 56.3048 35.9318 57.0501 36.1124V39.8389C56.2156 39.6912 55.9807 39.6091 55.1138 39.6091C54.0849 39.6091 53.534 39.9046 53.0317 40.4874C52.5294 41.0702 52.2782 42.0798 52.2782 43.5244V44.8541H57.0501L55.77 48.6217H52.7023L52.2782 48.6135Z" stroke="url(#paint0_linear_521_542)" stroke-width="2"/>
<defs>
<filter id="filter0_d_521_542" x="0" y="0" width="101.616" height="101.616" filterUnits="userSpaceOnUse" color-interpolation-filters="sRGB">
<feFlood flood-opacity="0" result="BackgroundImageFix"/>
<feColorMatrix in="SourceAlpha" type="matrix" values="0 0 0 0 0 0 0 0 0 0 0 0 0 0 0 0 0 0 127 0" result="hardAlpha"/>
<feOffset dy="4"/>
<feGaussianBlur stdDeviation="15"/>
<feComposite in2="hardAlpha" operator="out"/>
<feColorMatrix type="matrix" values="0 0 0 0 0.698039 0 0 0 0 0.729412 0 0 0 0 0.568627 0 0 0 0.3 0"/>
<feBlend mode="normal" in2="BackgroundImageFix" result="effect1_dropShadow_521_542"/>
<feBlend mode="normal" in="SourceGraphic" in2="effect1_dropShadow_521_542" result="shape"/>
</filter>
<linearGradient id="paint0_linear_521_542" x1="47.2256" y1="57.9052" x2="57.2997" y2="35.8087" gradientUnits="userSpaceOnUse">
<stop stop-color="#53593E"/>
<stop offset="1" stop-color="#B2BA91"/>
</linearGradient>
</defs>
</svg>
