<svg width="103" height="102" viewBox="0 0 103 102" fill="none" xmlns="http://www.w3.org/2000/svg">
<g filter="url(#filter0_d_521_543)">
<rect x="30.4263" y="26" width="41.6156" height="41.6156" rx="20.8078" fill="white"/>
</g>
<path d="M66.75 46.9015C66.75 46.8241 66.75 46.7362 66.7465 46.6343C66.743 46.3495 66.7359 46.0296 66.7289 45.6886C66.7008 44.7077 66.6516 43.7304 66.5742 42.8093C66.4688 41.5401 66.3141 40.4819 66.1031 39.6874C65.8805 38.8582 65.4442 38.102 64.8377 37.4943C64.2313 36.8867 63.476 36.4488 62.6473 36.2245C61.6523 35.9573 59.7047 35.7921 56.9625 35.6901C55.6582 35.6409 54.2625 35.6093 52.8668 35.5917C52.3781 35.5847 51.9246 35.5812 51.5168 35.5776H50.4832C50.0754 35.5812 49.6219 35.5847 49.1332 35.5917C47.7375 35.6093 46.3418 35.6409 45.0375 35.6901C42.2953 35.7956 40.3441 35.9608 39.3527 36.2245C38.5238 36.4482 37.7681 36.8859 37.1616 37.4937C36.5551 38.1015 36.1189 38.858 35.8969 39.6874C35.6824 40.4819 35.5312 41.5401 35.4258 42.8093C35.3484 43.7304 35.2992 44.7077 35.2711 45.6886C35.2605 46.0296 35.257 46.3495 35.2535 46.6343C35.2535 46.7362 35.25 46.8241 35.25 46.9015V47.0983C35.25 47.1757 35.25 47.2636 35.2535 47.3655C35.257 47.6503 35.2641 47.9702 35.2711 48.3112C35.2992 49.2921 35.3484 50.2694 35.4258 51.1905C35.5312 52.4597 35.6859 53.5179 35.8969 54.3124C36.3469 55.9964 37.6687 57.3253 39.3527 57.7753C40.3441 58.0425 42.2953 58.2077 45.0375 58.3097C46.3418 58.3589 47.7375 58.3905 49.1332 58.4081C49.6219 58.4151 50.0754 58.4187 50.4832 58.4222H51.5168C51.9246 58.4187 52.3781 58.4151 52.8668 58.4081C54.2625 58.3905 55.6582 58.3589 56.9625 58.3097C59.7047 58.2042 61.6559 58.039 62.6473 57.7753C64.3312 57.3253 65.6531 55.9999 66.1031 54.3124C66.3176 53.5179 66.4688 52.4597 66.5742 51.1905C66.6516 50.2694 66.7008 49.2921 66.7289 48.3112C66.7395 47.9702 66.743 47.6503 66.7465 47.3655C66.7465 47.2636 66.75 47.1757 66.75 47.0983V46.9015ZM64.2188 47.0843C64.2188 47.1581 64.2188 47.239 64.2152 47.3339C64.2117 47.6081 64.2047 47.9104 64.1977 48.2374C64.173 49.1726 64.1238 50.1077 64.05 50.9761C63.9551 52.1081 63.8215 53.0362 63.6562 53.6585C63.4383 54.4706 62.7984 55.114 61.9898 55.3284C61.2516 55.5253 59.3918 55.6835 56.8641 55.7784C55.5844 55.8276 54.2062 55.8593 52.8316 55.8769C52.35 55.8839 51.9035 55.8874 51.5027 55.8874H50.4973L49.1684 55.8769C47.7937 55.8593 46.4191 55.8276 45.1359 55.7784C42.6082 55.68 40.7449 55.5253 40.0102 55.3284C39.2016 55.1105 38.5617 54.4706 38.3438 53.6585C38.1785 53.0362 38.0449 52.1081 37.95 50.9761C37.8762 50.1077 37.8305 49.1726 37.8023 48.2374C37.7918 47.9104 37.7883 47.6046 37.7848 47.3339C37.7848 47.239 37.7812 47.1546 37.7812 47.0843V46.9155C37.7812 46.8417 37.7813 46.7608 37.7848 46.6659C37.7883 46.3917 37.7953 46.0894 37.8023 45.7624C37.827 44.8272 37.8762 43.8921 37.95 43.0237C38.0449 41.8917 38.1785 40.9636 38.3438 40.3413C38.5617 39.5292 39.2016 38.8858 40.0102 38.6714C40.7484 38.4745 42.6082 38.3163 45.1359 38.2214C46.4156 38.1722 47.7937 38.1405 49.1684 38.1229C49.65 38.1159 50.0965 38.1124 50.4973 38.1124H51.5027L52.8316 38.1229C54.2062 38.1405 55.5809 38.1722 56.8641 38.2214C59.3918 38.3198 61.2551 38.4745 61.9898 38.6714C62.7984 38.8894 63.4383 39.5292 63.6562 40.3413C63.8215 40.9636 63.9551 41.8917 64.05 43.0237C64.1238 43.8921 64.1695 44.8272 64.1977 45.7624C64.2082 46.0894 64.2117 46.3952 64.2152 46.6659C64.2152 46.7608 64.2188 46.8452 64.2188 46.9155V47.0843ZM47.8711 51.7108L56.0273 46.9647L47.8711 42.289V51.7108Z" fill="url(#paint0_linear_521_543)"/>
<defs>
<filter id="filter0_d_521_543" x="0.42627" y="0" width="101.616" height="101.616" filterUnits="userSpaceOnUse" color-interpolation-filters="sRGB">
<feFlood flood-opacity="0" result="BackgroundImageFix"/>
<feColorMatrix in="SourceAlpha" type="matrix" values="0 0 0 0 0 0 0 0 0 0 0 0 0 0 0 0 0 0 127 0" result="hardAlpha"/>
<feOffset dy="4"/>
<feGaussianBlur stdDeviation="15"/>
<feComposite in2="hardAlpha" operator="out"/>
<feColorMatrix type="matrix" values="0 0 0 0 0.698039 0 0 0 0 0.729412 0 0 0 0 0.568627 0 0 0 0.3 0"/>
<feBlend mode="normal" in2="BackgroundImageFix" result="effect1_dropShadow_521_543"/>
<feBlend mode="normal" in="SourceGraphic" in2="effect1_dropShadow_521_543" result="shape"/>
</filter>
<linearGradient id="paint0_linear_521_543" x1="64.5" y1="37.6544" x2="46.3544" y2="62.8691" gradientUnits="userSpaceOnUse">
<stop stop-color="#B2BA91"/>
<stop offset="1" stop-color="#53593E"/>
</linearGradient>
</defs>
</svg>
