<svg width="102" height="102" viewBox="0 0 102 102" fill="none" xmlns="http://www.w3.org/2000/svg">
<g filter="url(#filter0_d_521_544)">
<rect x="30.3843" y="26" width="41.6156" height="41.6156" rx="20.8078" fill="white"/>
</g>
<path d="M58.2341 56.518H44.8439C42.9936 56.518 41.4819 55.0064 41.4819 53.156V39.7658C41.4819 37.9155 42.9936 36.4038 44.8439 36.4038H58.2341C60.0845 36.4038 61.5961 37.9155 61.5961 39.7658V53.156C61.5961 55.0146 60.0927 56.518 58.2341 56.518Z" stroke="url(#paint0_linear_521_544)" stroke-width="2"/>
<path d="M47.892 50.1162C48.8668 51.0909 50.1637 51.6278 51.5432 51.6278C52.9227 51.6278 54.2113 51.0909 55.1943 50.1162C56.169 49.1414 56.706 47.8445 56.706 46.465C56.706 45.0855 56.169 43.7887 55.1943 42.8139C54.2196 41.8392 52.9227 41.3023 51.5432 41.3023C50.1637 41.3023 48.8668 41.8392 47.892 42.8139C46.9173 43.7887 46.3804 45.0855 46.3804 46.465C46.3804 47.8445 46.9173 49.1414 47.892 50.1162Z" stroke="url(#paint1_linear_521_544)" stroke-width="2"/>
<path d="M57.7123 41.1326C58.2597 41.1326 58.7036 40.6888 58.7036 40.1413C58.7036 39.5939 58.2597 39.15 57.7123 39.15C57.1648 39.15 56.721 39.5939 56.721 40.1413C56.721 40.6888 57.1648 41.1326 57.7123 41.1326Z" stroke="url(#paint2_linear_521_544)" stroke-width="2"/>
<defs>
<filter id="filter0_d_521_544" x="0.384277" y="0" width="101.616" height="101.616" filterUnits="userSpaceOnUse" color-interpolation-filters="sRGB">
<feFlood flood-opacity="0" result="BackgroundImageFix"/>
<feColorMatrix in="SourceAlpha" type="matrix" values="0 0 0 0 0 0 0 0 0 0 0 0 0 0 0 0 0 0 127 0" result="hardAlpha"/>
<feOffset dy="4"/>
<feGaussianBlur stdDeviation="15"/>
<feComposite in2="hardAlpha" operator="out"/>
<feColorMatrix type="matrix" values="0 0 0 0 0.698039 0 0 0 0 0.729412 0 0 0 0 0.568627 0 0 0 0.3 0"/>
<feBlend mode="normal" in2="BackgroundImageFix" result="effect1_dropShadow_521_544"/>
<feBlend mode="normal" in="SourceGraphic" in2="effect1_dropShadow_521_544" result="shape"/>
</filter>
<linearGradient id="paint0_linear_521_544" x1="61.5961" y1="36.4038" x2="41.4819" y2="56.518" gradientUnits="userSpaceOnUse">
<stop stop-color="#B2BA91"/>
<stop offset="1" stop-color="#53593E"/>
</linearGradient>
<linearGradient id="paint1_linear_521_544" x1="61.5961" y1="36.4038" x2="41.4819" y2="56.518" gradientUnits="userSpaceOnUse">
<stop stop-color="#B2BA91"/>
<stop offset="1" stop-color="#53593E"/>
</linearGradient>
<linearGradient id="paint2_linear_521_544" x1="61.5961" y1="36.4038" x2="41.4819" y2="56.518" gradientUnits="userSpaceOnUse">
<stop stop-color="#B2BA91"/>
<stop offset="1" stop-color="#53593E"/>
</linearGradient>
</defs>
</svg>
