<svg width="72" height="72" viewBox="0 0 72 72" fill="none" xmlns="http://www.w3.org/2000/svg">
<path d="M0 15C0 6.71573 6.71573 0 15 0H57C65.2843 0 72 6.71573 72 15V57C72 65.2843 65.2843 72 57 72H15C6.71573 72 0 65.2843 0 57V15Z" fill="#FEFBFF"/>
<path d="M36 26.4714C31.0491 26.4714 26.9989 30.2833 26.9989 34.9428C26.9989 36.8488 27.6739 38.5422 28.7983 39.9201C28.7983 39.9201 29.1358 40.343 29.2476 40.4502C30.2601 41.6156 32.7345 44.8973 32.7345 47.651H39.4848C39.4848 44.8973 41.9592 41.6156 42.9717 40.4502C43.0835 40.345 43.421 39.9201 43.421 39.9201C44.5453 38.5443 45.2204 36.7436 45.2204 34.9428C45.001 30.2833 40.9508 26.4714 36 26.4714Z" fill="url(#paint0_linear_364_578)"/>
<path d="M32.6249 49.7653H39.3751V54H32.6249V49.7653Z" fill="url(#paint1_linear_364_578)"/>
<path d="M18 33.8827H24.7503V36.001H18V33.8827Z" fill="url(#paint2_linear_364_578)"/>
<path d="M47.2497 33.8827H54V36.001H47.2497V33.8827Z" fill="url(#paint3_linear_364_578)"/>
<path d="M47.9458 22.2128L49.5363 23.7098L44.7627 28.2026L43.1721 26.7056L47.9458 22.2128Z" fill="url(#paint4_linear_364_578)"/>
<path d="M34.8757 18H37.1265V24.3531H34.8757V18Z" fill="url(#paint5_linear_364_578)"/>
<path d="M24.0666 22.2032L28.8403 26.696L27.2498 28.1929L22.4761 23.7001L24.0666 22.2032Z" fill="url(#paint6_linear_364_578)"/>
<defs>
<linearGradient id="paint0_linear_364_578" x1="36" y1="18" x2="36" y2="54" gradientUnits="userSpaceOnUse">
<stop stop-color="#B2BA91"/>
<stop offset="1" stop-color="#53593E"/>
</linearGradient>
<linearGradient id="paint1_linear_364_578" x1="36" y1="18" x2="36" y2="54" gradientUnits="userSpaceOnUse">
<stop stop-color="#B2BA91"/>
<stop offset="1" stop-color="#53593E"/>
</linearGradient>
<linearGradient id="paint2_linear_364_578" x1="36" y1="18" x2="36" y2="54" gradientUnits="userSpaceOnUse">
<stop stop-color="#B2BA91"/>
<stop offset="1" stop-color="#53593E"/>
</linearGradient>
<linearGradient id="paint3_linear_364_578" x1="36" y1="18" x2="36" y2="54" gradientUnits="userSpaceOnUse">
<stop stop-color="#B2BA91"/>
<stop offset="1" stop-color="#53593E"/>
</linearGradient>
<linearGradient id="paint4_linear_364_578" x1="36" y1="18" x2="36" y2="54" gradientUnits="userSpaceOnUse">
<stop stop-color="#B2BA91"/>
<stop offset="1" stop-color="#53593E"/>
</linearGradient>
<linearGradient id="paint5_linear_364_578" x1="36" y1="18" x2="36" y2="54" gradientUnits="userSpaceOnUse">
<stop stop-color="#B2BA91"/>
<stop offset="1" stop-color="#53593E"/>
</linearGradient>
<linearGradient id="paint6_linear_364_578" x1="36" y1="18" x2="36" y2="54" gradientUnits="userSpaceOnUse">
<stop stop-color="#B2BA91"/>
<stop offset="1" stop-color="#53593E"/>
</linearGradient>
</defs>
</svg>
