<svg width="24" height="21" viewBox="0 0 24 21" fill="none" xmlns="http://www.w3.org/2000/svg">
<path d="M18.653 19.7178H5.20276C3.34413 19.7178 1.82568 18.3125 1.82568 16.5924V4.14446C1.82568 2.42433 3.34413 1.01904 5.20276 1.01904H18.653C20.5116 1.01904 22.0301 2.42433 22.0301 4.14446V16.5924C22.0301 18.3202 20.5199 19.7178 18.653 19.7178Z" stroke="url(#paint0_linear_321_1412)" stroke-width="2"/>
<path d="M8.26454 13.7665C9.24364 14.6726 10.5463 15.1717 11.932 15.1717C13.3177 15.1717 14.6121 14.6726 15.5995 13.7665C16.5786 12.8603 17.118 11.6547 17.118 10.3723C17.118 9.08985 16.5786 7.88422 15.5995 6.97808C14.6204 6.07194 13.3177 5.57279 11.932 5.57279C10.5463 5.57279 9.24364 6.07194 8.26454 6.97808C7.28544 7.88422 6.7461 9.08985 6.7461 10.3723C6.7461 11.6547 7.28544 12.8603 8.26454 13.7665Z" stroke="url(#paint1_linear_321_1412)" stroke-width="2"/>
<path d="M18.1288 5.41507C18.6787 5.41507 19.1245 5.00249 19.1245 4.49355C19.1245 3.9846 18.6787 3.57203 18.1288 3.57203C17.5789 3.57203 17.1331 3.9846 17.1331 4.49355C17.1331 5.00249 17.5789 5.41507 18.1288 5.41507Z" stroke="url(#paint2_linear_321_1412)" stroke-width="2"/>
<defs>
<linearGradient id="paint0_linear_321_1412" x1="22.0301" y1="1.01904" x2="3.38725" y2="21.163" gradientUnits="userSpaceOnUse">
<stop stop-color="#B2BA91"/>
<stop offset="1" stop-color="#53593E"/>
</linearGradient>
<linearGradient id="paint1_linear_321_1412" x1="22.0301" y1="1.01904" x2="3.38725" y2="21.163" gradientUnits="userSpaceOnUse">
<stop stop-color="#B2BA91"/>
<stop offset="1" stop-color="#53593E"/>
</linearGradient>
<linearGradient id="paint2_linear_321_1412" x1="22.0301" y1="1.01904" x2="3.38725" y2="21.163" gradientUnits="userSpaceOnUse">
<stop stop-color="#B2BA91"/>
<stop offset="1" stop-color="#53593E"/>
</linearGradient>
</defs>
</svg>
