<svg width="28" height="261" viewBox="0 0 28 261" fill="none" xmlns="http://www.w3.org/2000/svg">
<path d="M14 233.667C6.63621 233.667 0.666677 239.636 0.666678 247C0.666678 254.364 6.63621 260.333 14 260.333C21.3638 260.333 27.3333 254.364 27.3333 247C27.3333 239.636 21.3638 233.667 14 233.667ZM11.5 5.14583C11.5 6.52655 12.6193 7.64583 14 7.64583C15.3807 7.64583 16.5 6.52655 16.5 5.14583L11.5 5.14583ZM16.5 15.4375C16.5 14.0568 15.3807 12.9375 14 12.9375C12.6193 12.9375 11.5 14.0568 11.5 15.4375L16.5 15.4375ZM11.5 25.7292C11.5 27.1099 12.6193 28.2292 14 28.2292C15.3807 28.2292 16.5 27.1099 16.5 25.7292L11.5 25.7292ZM16.5 36.0208C16.5 34.6401 15.3807 33.5208 14 33.5208C12.6193 33.5208 11.5 34.6401 11.5 36.0208L16.5 36.0208ZM11.5 46.3125C11.5 47.6932 12.6193 48.8125 14 48.8125C15.3807 48.8125 16.5 47.6932 16.5 46.3125L11.5 46.3125ZM16.5 56.6042C16.5 55.2235 15.3807 54.1042 14 54.1042C12.6193 54.1042 11.5 55.2235 11.5 56.6042L16.5 56.6042ZM11.5 66.8958C11.5 68.2766 12.6193 69.3958 14 69.3958C15.3807 69.3958 16.5 68.2766 16.5 66.8958L11.5 66.8958ZM16.5 77.1875C16.5 75.8068 15.3807 74.6875 14 74.6875C12.6193 74.6875 11.5 75.8068 11.5 77.1875L16.5 77.1875ZM11.5 87.4792C11.5 88.8599 12.6193 89.9792 14 89.9792C15.3807 89.9792 16.5 88.8599 16.5 87.4792L11.5 87.4792ZM16.5 97.7708C16.5 96.3901 15.3807 95.2708 14 95.2708C12.6193 95.2708 11.5 96.3901 11.5 97.7708L16.5 97.7708ZM11.5 108.062C11.5 109.443 12.6193 110.562 14 110.562C15.3807 110.562 16.5 109.443 16.5 108.062L11.5 108.062ZM16.5 118.354C16.5 116.973 15.3807 115.854 14 115.854C12.6193 115.854 11.5 116.973 11.5 118.354L16.5 118.354ZM11.5 128.646C11.5 130.027 12.6193 131.146 14 131.146C15.3807 131.146 16.5 130.027 16.5 128.646L11.5 128.646ZM16.5 138.937C16.5 137.557 15.3807 136.437 14 136.438C12.6193 136.438 11.5 137.557 11.5 138.938L16.5 138.937ZM11.5 149.229C11.5 150.61 12.6193 151.729 14 151.729C15.3807 151.729 16.5 150.61 16.5 149.229L11.5 149.229ZM16.5 159.521C16.5 158.14 15.3807 157.021 14 157.021C12.6193 157.021 11.5 158.14 11.5 159.521L16.5 159.521ZM11.5 169.813C11.5 171.193 12.6193 172.313 14 172.313C15.3807 172.313 16.5 171.193 16.5 169.813L11.5 169.813ZM16.5 180.104C16.5 178.723 15.3807 177.604 14 177.604C12.6193 177.604 11.5 178.723 11.5 180.104L16.5 180.104ZM11.5 190.396C11.5 191.777 12.6193 192.896 14 192.896C15.3807 192.896 16.5 191.777 16.5 190.396L11.5 190.396ZM16.5 200.688C16.5 199.307 15.3807 198.188 14 198.188C12.6193 198.188 11.5 199.307 11.5 200.688L16.5 200.688ZM11.5 210.979C11.5 212.36 12.6193 213.479 14 213.479C15.3807 213.479 16.5 212.36 16.5 210.979L11.5 210.979ZM16.5 221.271C16.5 219.89 15.3807 218.771 14 218.771C12.6193 218.771 11.5 219.89 11.5 221.271L16.5 221.271ZM11.5 231.563C11.5 232.943 12.6193 234.063 14 234.063C15.3807 234.063 16.5 232.943 16.5 231.563L11.5 231.563ZM16.5 241.854C16.5 240.474 15.3807 239.354 14 239.354C12.6193 239.354 11.5 240.474 11.5 241.854L16.5 241.854ZM11.5 1.09278e-07L11.5 5.14583L16.5 5.14583L16.5 -1.09278e-07L11.5 1.09278e-07ZM11.5 15.4375L11.5 25.7292L16.5 25.7292L16.5 15.4375L11.5 15.4375ZM11.5 36.0208L11.5 46.3125L16.5 46.3125L16.5 36.0208L11.5 36.0208ZM11.5 56.6042L11.5 66.8958L16.5 66.8958L16.5 56.6042L11.5 56.6042ZM11.5 77.1875L11.5 87.4792L16.5 87.4792L16.5 77.1875L11.5 77.1875ZM11.5 97.7708L11.5 108.062L16.5 108.062L16.5 97.7708L11.5 97.7708ZM11.5 118.354L11.5 128.646L16.5 128.646L16.5 118.354L11.5 118.354ZM11.5 138.938L11.5 149.229L16.5 149.229L16.5 138.937L11.5 138.938ZM11.5 159.521L11.5 169.813L16.5 169.813L16.5 159.521L11.5 159.521ZM11.5 180.104L11.5 190.396L16.5 190.396L16.5 180.104L11.5 180.104ZM11.5 200.688L11.5 210.979L16.5 210.979L16.5 200.688L11.5 200.688ZM11.5 221.271L11.5 231.563L16.5 231.563L16.5 221.271L11.5 221.271ZM11.5 241.854L11.5 247L16.5 247L16.5 241.854L11.5 241.854Z" fill="url(#paint0_linear_321_1415)"/>
<defs>
<linearGradient id="paint0_linear_321_1415" x1="13.668" y1="247" x2="13.668" y2="5.75635" gradientUnits="userSpaceOnUse">
<stop stop-color="#B2BA91"/>
<stop offset="1" stop-color="#53593E" stop-opacity="0"/>
</linearGradient>
</defs>
</svg>
