<svg width="51" height="51" viewBox="0 0 51 51" fill="none" xmlns="http://www.w3.org/2000/svg">
<g opacity="0.9">
<path d="M30.5301 4.50571L30.2637 4.51034L30.2674 4.7169L30.4683 4.76486L30.5301 4.50571ZM36.1385 6.71603L36.0069 6.94775L36.1865 7.04975L36.3299 6.90112L36.1385 6.71603ZM43.9005 14.2132L43.7092 14.0281L43.5658 14.1767L43.674 14.3527L43.9005 14.2132ZM46.3066 19.7402L46.0497 19.8111L46.1046 20.0102L46.3109 20.0066L46.3066 19.7402ZM46.4942 30.5303L46.4894 30.2639L46.2831 30.2675L46.2352 30.4685L46.4942 30.5303ZM44.2836 36.1383L44.0524 36.0068L43.95 36.1865L44.0987 36.33L44.2836 36.1383ZM36.7866 43.9008L36.972 43.7091L36.8233 43.5656L36.6469 43.6738L36.7866 43.9008ZM31.2597 46.3064L31.1888 46.0496L30.99 46.1046L30.9932 46.3111L31.2597 46.3064ZM20.4697 46.4942L20.7362 46.4896L20.7324 46.283L20.5315 46.2351L20.4697 46.4942ZM14.8618 44.284L14.9929 44.0523L14.8133 43.9503L14.67 44.0989L14.8618 44.284ZM7.09936 36.7869L7.29068 36.972L7.43457 36.8234L7.32639 36.6474L7.09936 36.7869ZM4.69324 31.26L4.95011 31.189L4.89522 30.9899L4.68898 30.9935L4.69324 31.26ZM4.50566 20.4698L4.51045 20.7362L4.71669 20.7327L4.76466 20.5317L4.50566 20.4698ZM6.71566 14.8617L6.94748 14.9932L7.0498 14.8135L6.90112 14.67L6.71566 14.8617ZM14.2127 7.0992L14.0278 7.29089L14.1765 7.43441L14.3524 7.32622L14.2127 7.0992ZM19.7402 4.69351L19.811 4.95032L20.0098 4.89532L20.0066 4.68882L19.7402 4.69351ZM21.8313 0.112952C20.4852 0.136443 19.4135 1.2465 19.4369 2.59232L19.9698 2.58305C19.9512 1.53148 20.7889 0.664143 21.8404 0.645789L21.8313 0.112952ZM28.2807 0.000378824L21.8313 0.112952L21.8404 0.645789L28.2897 0.533216L28.2807 0.000378824ZM30.7598 2.39472C30.7364 1.04886 29.6263 -0.0231122 28.2807 0.000378824L28.2897 0.533216C29.3412 0.514857 30.2088 1.35244 30.2269 2.40399L30.7598 2.39472ZM30.7966 4.50102L30.7598 2.39472L30.2269 2.40399L30.2637 4.51034L30.7966 4.50102ZM36.2696 6.48427C34.5142 5.48798 32.6074 4.72767 30.5919 4.2465L30.4683 4.76486C32.4342 5.23415 34.2941 5.97581 36.0069 6.94775L36.2696 6.48427ZM37.4111 5.01464L35.9467 6.5309L36.3299 6.90112L37.7943 5.38486L37.4111 5.01464ZM40.857 4.95448C39.8887 4.01947 38.3459 4.04639 37.4111 5.01464L37.7943 5.38486C38.5249 4.62828 39.7304 4.60728 40.4871 5.33786L40.857 4.95448ZM45.4971 9.43524L40.857 4.95448L40.4871 5.33786L45.1267 9.81857L45.4971 9.43524ZM45.5573 12.8815C46.4921 11.9132 46.4654 10.3702 45.4971 9.43524L45.1267 9.81857C45.8835 10.5491 45.9042 11.7547 45.1736 12.5112L45.5573 12.8815ZM44.0923 14.3983L45.5573 12.8815L45.1736 12.5112L43.7092 14.0281L44.0923 14.3983ZM46.5635 19.6692C46.0124 17.675 45.1859 15.7953 44.1275 14.0736L43.674 14.3527C44.7062 16.0324 45.5126 17.866 46.0497 19.8111L46.5635 19.6692ZM48.4079 19.437L46.3018 19.4737L46.3109 20.0066L48.417 19.9698L48.4079 19.437ZM50.887 21.8313C50.8636 20.4855 49.7535 19.4135 48.4079 19.437L48.417 19.9698C49.4684 19.9515 50.336 20.789 50.3541 21.8406L50.887 21.8313ZM50.9995 28.2806L50.887 21.8313L50.3541 21.8406L50.4665 28.2899L50.9995 28.2806ZM48.6051 30.76C49.9512 30.7365 51.0229 29.6265 50.9995 28.2806L50.4665 28.2899C50.4852 29.3414 49.6474 30.2088 48.596 30.2272L48.6051 30.76ZM46.499 30.7967L48.6051 30.76L48.596 30.2272L46.4894 30.2639L46.499 30.7967ZM44.5155 36.2699C45.512 34.5145 46.272 32.6076 46.7532 30.5922L46.2352 30.4685C45.7657 32.4342 45.0239 34.2944 44.0524 36.0068L44.5155 36.2699ZM45.9853 37.411L44.4691 35.9467L44.0987 36.33L45.6154 37.7944L45.9853 37.411ZM46.0455 40.8573C46.9807 39.889 46.9536 38.3461 45.9853 37.411L45.6154 37.7944C46.3716 38.525 46.3929 39.7306 45.6623 40.4871L46.0455 40.8573ZM41.5647 45.4972L46.0455 40.8573L45.6623 40.4871L41.1815 45.127L41.5647 45.4972ZM38.1189 45.5574C39.0866 46.4924 40.63 46.4655 41.5647 45.4972L41.1815 45.127C40.4509 45.8836 39.2454 45.9046 38.4887 45.174L38.1189 45.5574ZM36.6016 44.0924L38.1189 45.5574L38.4887 45.174L36.972 43.7091L36.6016 44.0924ZM31.3306 46.5633C33.3247 46.0125 35.2043 45.1861 36.9262 44.1278L36.6469 43.6738C34.9677 44.7062 33.134 45.5123 31.1888 46.0496L31.3306 46.5633ZM31.5629 48.4078L31.5261 46.3018L30.9932 46.3111L31.03 48.4171L31.5629 48.4078ZM29.1685 50.8872C30.5147 50.8637 31.5864 49.7537 31.5629 48.4078L31.03 48.4171C31.0487 49.4687 30.2109 50.3361 29.1595 50.3543L29.1685 50.8872ZM22.7192 50.9996L29.1685 50.8872L29.1595 50.3543L22.7101 50.4667L22.7192 50.9996ZM20.24 48.6054C20.2635 49.9513 21.3735 51.0231 22.7192 50.9996L22.7101 50.4667C21.6587 50.4854 20.7911 49.6477 20.7729 48.5962L20.24 48.6054ZM20.2033 46.4989L20.24 48.6054L20.7729 48.5962L20.7362 46.4896L20.2033 46.4989ZM14.7302 44.5158C16.4856 45.512 18.3924 46.2723 20.4079 46.7534L20.5315 46.2351C18.5656 45.7658 16.7057 45.0242 14.9929 44.0523L14.7302 44.5158ZM13.5887 45.9856L15.0531 44.4691L14.67 44.0989L13.2055 45.6153L13.5887 45.9856ZM10.1428 46.0457C11.1112 46.9807 12.654 46.9538 13.5887 45.9856L13.2055 45.6153C12.4749 46.3719 11.2694 46.3929 10.5127 45.6624L10.1428 46.0457ZM5.50275 41.565L10.1428 46.0457L10.5127 45.6624L5.87312 41.1816L5.50275 41.565ZM5.44253 38.1188C4.50779 39.087 4.53444 40.63 5.50275 41.565L5.87312 41.1816C5.11638 40.4511 5.09559 39.2455 5.82622 38.489L5.44253 38.1188ZM6.90751 36.6019L5.44253 38.1188L5.82622 38.489L7.29068 36.972L6.90751 36.6019ZM4.43638 31.3309C4.98741 33.3251 5.81397 35.2048 6.87234 36.9265L7.32639 36.6474C6.29359 34.9677 5.48782 33.1341 4.95011 31.189L4.43638 31.3309ZM2.59195 31.5631L4.69804 31.5264L4.68898 30.9935L2.58289 31.0303L2.59195 31.5631ZM0.112822 29.1688C0.136271 30.5147 1.24634 31.5866 2.59195 31.5631L2.58289 31.0303C1.53145 31.0487 0.663858 30.2111 0.645739 29.1595L0.112822 29.1688ZM0.000377557 22.7195L0.112822 29.1688L0.645739 29.1595L0.533295 22.7103L0.000377557 22.7195ZM2.39477 20.2402C1.04862 20.2636 -0.0230708 21.3737 0.000377557 22.7195L0.533295 22.7103C0.514642 21.6587 1.35239 20.7914 2.40383 20.773L2.39477 20.2402ZM4.50086 20.2034L2.39477 20.2402L2.40383 20.773L4.51045 20.7362L4.50086 20.2034ZM6.48438 14.7301C5.48783 16.4855 4.72735 18.3925 4.24666 20.4079L4.76466 20.5317C5.23416 18.5659 5.97544 16.7057 6.94748 14.9932L6.48438 14.7301ZM5.01459 13.5891L6.53074 15.0534L6.90112 14.67L5.38444 13.2057L5.01459 13.5891ZM4.95437 10.1428C4.0191 11.1111 4.04628 12.6541 5.01459 13.5891L5.38444 13.2057C4.62823 12.4752 4.60691 11.2696 5.33754 10.5131L4.95437 10.1428ZM9.43514 5.50295L4.95437 10.1428L5.33754 10.5131L9.81831 5.87312L9.43514 5.50295ZM12.8815 5.44279C11.9132 4.50773 10.3699 4.5347 9.43514 5.50295L9.81831 5.87312C10.5489 5.11659 11.7544 5.09554 12.5111 5.82612L12.8815 5.44279ZM14.3982 6.90756L12.8815 5.44279L12.5111 5.82612L14.0278 7.29089L14.3982 6.90756ZM19.6693 4.43664C17.6751 4.98746 15.795 5.81386 14.0736 6.87223L14.3524 7.32622C16.0321 6.2937 17.8659 5.48761 19.811 4.95032L19.6693 4.43664ZM19.4369 2.59232L19.4737 4.69814L20.0066 4.68882L19.9698 2.58305L19.4369 2.59232ZM43.2199 25.5C43.2199 35.2865 35.2864 43.2199 25.4999 43.2199V43.7528C35.5806 43.7528 43.7529 35.5807 43.7529 25.5H43.2199ZM25.4999 7.78016C35.2864 7.78016 43.2199 15.7136 43.2199 25.5H43.7529C43.7529 15.4193 35.5806 7.24725 25.4999 7.24725V7.78016ZM7.7799 25.5C7.7799 15.7136 15.7134 7.78016 25.4999 7.78016V7.24725C15.4193 7.24725 7.24698 15.4193 7.24698 25.5H7.7799ZM25.4999 43.2199C15.7134 43.2199 7.7799 35.2865 7.7799 25.5H7.24698C7.24698 35.5807 15.4193 43.7528 25.4999 43.7528V43.2199Z" fill="#53593E"/>
<path d="M25.5 8.78516C23.4621 8.78516 21.8096 16.22 21.8096 25.3915C21.8096 34.5629 23.4621 41.9978 25.5 41.9978C27.5379 41.9978 29.1905 34.5629 29.1905 25.3915C29.1905 16.22 27.5379 8.78516 25.5 8.78516ZM25.7548 41.0606C25.5219 41.3733 25.2885 41.1387 25.2885 41.1387C24.35 40.0449 23.881 38.0128 23.881 38.0128C22.2391 32.6989 22.6303 21.2894 22.6303 21.2894C23.4014 12.2314 24.8051 10.0917 25.2826 9.61661C25.3311 9.56812 25.3956 9.53849 25.4638 9.53295C25.532 9.5274 25.6002 9.54627 25.6562 9.58624C26.349 10.0801 26.9304 12.1456 26.9304 12.1456C28.6464 18.5536 28.4908 24.571 28.4908 24.571C28.6464 29.8068 27.6312 35.6678 27.6312 35.6678C26.8494 40.1221 25.7548 41.0606 25.7548 41.0606Z" fill="#53593E"/>
<path d="M39.9247 16.9999C38.9026 15.1937 31.6171 17.4871 23.6468 22.1217C15.6765 26.7563 10.0547 31.9779 11.0758 33.7833C12.0969 35.5888 19.3834 33.2962 27.3537 28.6616C35.3235 24.027 40.9458 18.8053 39.9247 16.9999ZM12.0185 33.5356C11.6274 33.4856 11.7158 33.1595 11.7158 33.1595C12.196 31.7755 13.7233 30.3328 13.7233 30.3328C17.5177 26.1928 27.6245 20.7734 27.6245 20.7734C35.8783 16.8793 38.4416 17.0436 39.0923 17.2252C39.1589 17.2441 39.217 17.2863 39.2559 17.3444C39.2948 17.4025 39.3124 17.4728 39.3049 17.5426C39.2266 18.4066 37.7206 19.9647 37.7206 19.9647C33.0176 24.7254 27.7129 27.6291 27.7129 27.6291C23.2428 30.4136 17.6429 32.4745 17.6429 32.4745C13.3823 34.0316 12.0185 33.5356 12.0185 33.5356Z" fill="#53593E"/>
<path d="M39.9228 33.7919C40.9471 32.0014 35.368 26.7876 27.4664 22.1463C19.5649 17.5052 12.3177 15.1974 11.294 16.991C10.2703 18.7846 15.8483 23.9953 23.7546 28.6365C31.6605 33.2778 38.8991 35.5856 39.9228 33.7919ZM11.9729 17.6829C11.8216 17.3193 12.1413 17.2318 12.1413 17.2318C13.5557 16.9611 15.5424 17.5779 15.5424 17.5779C20.9478 18.8249 30.5866 24.9419 30.5866 24.9419C38.0075 30.203 39.1458 32.5204 39.3164 33.1782C39.3339 33.2457 39.327 33.3172 39.2977 33.3801C39.2679 33.4431 39.2172 33.4934 39.1543 33.5222C38.3806 33.8811 36.308 33.3463 36.308 33.3463C29.92 31.611 24.8114 28.4315 24.8114 28.4315C20.2209 25.9232 15.682 22.0637 15.682 22.0637C12.233 19.1217 11.974 17.6868 11.974 17.6868L11.9729 17.6829Z" fill="#53593E"/>
<path d="M25.4996 27.2369C26.5787 27.2369 27.4532 26.4108 27.4532 25.3918C27.4532 24.3728 26.5787 23.5466 25.4996 23.5466C24.4204 23.5466 23.5459 24.3728 23.5459 25.3918C23.5459 26.4108 24.4204 27.2369 25.4996 27.2369Z" fill="#53593E"/>
<path d="M33.5313 18.9879C34.1308 18.9879 34.6169 18.4534 34.6169 17.794C34.6169 17.1346 34.1308 16.6001 33.5313 16.6001C32.9318 16.6001 32.4463 17.1346 32.4463 17.794C32.4463 18.4534 32.9318 18.9879 33.5313 18.9879Z" fill="#53593E"/>
<path d="M14.7548 22.6779C15.414 22.6779 15.9486 22.1433 15.9486 21.4839C15.9486 20.8246 15.414 20.29 14.7548 20.29C14.0951 20.29 13.5605 20.8246 13.5605 21.4839C13.5605 22.1433 14.0951 22.6779 14.7548 22.6779Z" fill="#53593E"/>
<path d="M27.8883 37.4395C28.4873 37.4395 28.9733 36.9536 28.9733 36.3541C28.9733 35.7547 28.4873 35.2688 27.8883 35.2688C27.2888 35.2688 26.8027 35.7547 26.8027 36.3541C26.8027 36.9536 27.2888 37.4395 27.8883 37.4395Z" fill="#53593E"/>
</g>
</svg>
