<svg width="234" height="234" viewBox="0 0 234 234" fill="none" xmlns="http://www.w3.org/2000/svg">
<path fill-rule="evenodd" clip-rule="evenodd" d="M90.2967 11.45C90.2003 5.92797 94.5986 1.37336 100.121 1.27698L129.83 0.75839C135.352 0.662003 139.907 5.06034 140.003 10.5823L140.173 20.2854C149.343 22.4746 158.02 25.9341 166.008 30.4677L172.753 23.4829C176.59 19.5101 182.92 19.3996 186.893 23.2361L208.268 43.8774C212.241 47.7138 212.351 54.0445 208.515 58.0173L201.767 65.0048C206.583 72.8393 210.343 81.3925 212.849 90.466L222.55 90.2967C228.072 90.2003 232.627 94.5986 232.723 100.121L233.242 129.83C233.338 135.352 228.94 139.907 223.418 140.003L213.714 140.173C211.525 149.343 208.065 158.02 203.532 166.007L210.517 172.753C214.49 176.59 214.601 182.92 210.764 186.893L190.123 208.268C186.286 212.241 179.956 212.351 175.983 208.515L168.995 201.766C161.16 206.582 152.607 210.342 143.534 212.848L143.703 222.55C143.8 228.072 139.401 232.627 133.879 232.723L104.17 233.242C98.6476 233.338 94.093 228.94 93.9966 223.418L93.8272 213.713C84.6573 211.524 75.9806 208.065 67.9932 203.531L61.247 210.517C57.4105 214.49 51.0798 214.601 47.107 210.764L25.7323 190.123C21.7595 186.286 21.649 179.956 25.4855 175.983L32.2339 168.995C27.418 161.16 23.6578 152.607 21.1515 143.534L11.45 143.703C5.92797 143.8 1.37336 139.401 1.27698 133.879L0.75839 104.17C0.662003 98.6476 5.06034 94.093 10.5823 93.9966L20.286 93.8272C22.4751 84.6571 25.9345 75.98 30.468 67.9924L23.4829 61.247C19.5101 57.4105 19.3996 51.0798 23.2361 47.107L43.8773 25.7323C47.7138 21.7595 54.0445 21.649 58.0173 25.4855L65.0047 32.2331C72.8393 27.4172 81.3924 23.6569 90.466 21.1506L90.2967 11.45ZM199.857 116.999C199.857 162.76 162.761 199.856 117 199.856C71.2393 199.856 34.1429 162.76 34.1429 116.999C34.1429 71.2386 71.2393 34.1422 117 34.1422C162.761 34.1422 199.857 71.2386 199.857 116.999Z" fill="#555947"/>
<path d="M117 39.9998C107.612 39.9998 99.9998 74.2498 99.9998 116.5C99.9998 158.75 107.612 193 117 193C126.388 193 134 158.75 134 116.5C134 74.2498 126.388 39.9998 117 39.9998ZM118.173 188.682C117.1 190.123 116.026 189.042 116.026 189.042C111.703 184.003 109.541 174.642 109.541 174.642C101.979 150.163 103.779 97.6027 103.779 97.6027C107.333 55.8756 113.798 46.0184 115.998 43.83C116.223 43.6066 116.518 43.4701 116.833 43.4445C117.148 43.4189 117.462 43.5059 117.719 43.69C120.911 45.9652 123.589 55.4802 123.589 55.4802C131.494 85 130.778 112.72 130.778 112.72C131.494 136.84 126.817 163.84 126.817 163.84C123.216 184.359 118.173 188.682 118.173 188.682Z" fill="#555947"/>
<path d="M183.448 77.8426C178.74 69.522 145.178 80.0869 108.462 101.437C71.7459 122.787 45.847 146.841 50.5515 155.158C55.256 163.475 88.8218 152.914 125.538 131.564C162.254 110.214 188.153 86.1596 183.448 77.8426V77.8426ZM54.8951 154.017C53.0926 153.787 53.4998 152.284 53.4998 152.284C55.7108 145.909 62.7469 139.263 62.7469 139.263C80.2271 120.191 126.786 95.2257 126.786 95.2257C164.807 77.2868 176.617 78.0437 179.613 78.8801C179.921 78.9672 180.188 79.1618 180.368 79.4295C180.547 79.6972 180.627 80.0207 180.594 80.3427C180.234 84.3225 173.294 91.5003 173.294 91.5003C151.631 113.431 127.193 126.807 127.193 126.807C106.601 139.635 80.8046 149.129 80.8046 149.129C61.1757 156.302 54.8958 154.017 54.8958 154.017H54.8951Z" fill="#555947"/>
<path d="M183.441 155.198C188.161 146.949 162.459 122.931 126.06 101.551C89.6601 80.17 56.2737 69.5391 51.5578 77.8016C46.8418 86.064 72.5392 110.068 108.96 131.449C145.38 152.829 178.725 163.461 183.441 155.198ZM54.6855 80.9887C53.9883 79.3139 55.4601 78.9106 55.4601 78.9106C61.9763 77.6638 71.1294 80.5049 71.1294 80.5049C96.0306 86.2498 140.433 114.429 140.433 114.429C174.62 138.665 179.863 149.34 180.649 152.371C180.728 152.682 180.697 153.011 180.561 153.301C180.424 153.591 180.191 153.822 179.903 153.955C176.338 155.609 166.79 153.145 166.79 153.145C137.362 145.151 113.828 130.504 113.828 130.504C92.6818 118.949 71.7722 101.17 71.7722 101.17C55.884 87.6166 54.6904 81.0071 54.6904 81.0071L54.6855 80.9887Z" fill="#555947"/>
<path d="M117 125C121.97 125 126 121.194 126 116.5C126 111.805 121.97 108 117 108C112.029 108 108 111.805 108 116.5C108 121.194 112.029 125 117 125Z" fill="#555947"/>
<path d="M154 86.9998C156.761 86.9998 159 84.5373 159 81.4998C159 78.4622 156.761 75.9998 154 75.9998C151.239 75.9998 149 78.4622 149 81.4998C149 84.5373 151.239 86.9998 154 86.9998Z" fill="#555947"/>
<path d="M67.4998 104C70.5373 104 72.9998 101.537 72.9998 98.4998C72.9998 95.4622 70.5373 92.9998 67.4998 92.9998C64.4622 92.9998 61.9998 95.4622 61.9998 98.4998C61.9998 101.537 64.4622 104 67.4998 104Z" fill="#555947"/>
<path d="M128 172C130.761 172 133 169.761 133 167C133 164.238 130.761 162 128 162C125.238 162 123 164.238 123 167C123 169.761 125.238 172 128 172Z" fill="#555947"/>
</svg>
