<svg width="115" height="115" viewBox="0 0 115 115" fill="none" xmlns="http://www.w3.org/2000/svg">
<path fill-rule="evenodd" clip-rule="evenodd" d="M45.1786 4.9569C45.1786 2.21928 47.3979 0 50.1355 0H64.8645C67.6021 0 69.8214 2.21928 69.8214 4.9569V9.767C74.3437 10.9309 78.6147 12.7206 82.5368 15.0381L85.941 11.6339C87.8768 9.69812 91.0153 9.69812 92.9511 11.6339L103.366 22.0489C105.302 23.9847 105.302 27.1233 103.366 29.059L99.9619 32.4633C102.279 36.3853 104.069 40.6564 105.233 45.1786H110.043C112.781 45.1786 115 47.3979 115 50.1355V64.8645C115 67.6021 112.781 69.8214 110.043 69.8214H105.233C104.069 74.3436 102.279 78.6147 99.9619 82.5367L103.366 85.941C105.302 87.8768 105.302 91.0153 103.366 92.9511L92.9512 103.366C91.0154 105.302 87.8769 105.302 85.9411 103.366L82.5368 99.9619C78.6147 102.279 74.3437 104.069 69.8214 105.233V110.043C69.8214 112.781 67.6021 115 64.8645 115H50.1355C47.3979 115 45.1786 112.781 45.1786 110.043V105.233C40.6564 104.069 36.3853 102.279 32.4633 99.9619L29.059 103.366C27.1232 105.302 23.9847 105.302 22.0489 103.366L11.6339 92.9512C9.69806 91.0154 9.69806 87.8769 11.6338 85.9411L15.0381 82.5368C12.7206 78.6147 10.9309 74.3437 9.767 69.8214H4.9569C2.21928 69.8214 0 67.6021 0 64.8645V50.1355C0 47.3979 2.21928 45.1786 4.9569 45.1786H9.767C10.9309 40.6563 12.7206 36.3853 15.0381 32.4632L11.6339 29.059C9.69812 27.1232 9.69812 23.9847 11.6339 22.0489L22.0489 11.6339C23.9847 9.69807 27.1233 9.69806 29.059 11.6339L32.4633 15.0381C36.3853 12.7206 40.6564 10.9309 45.1786 9.767V4.9569ZM98.5714 57.5006C98.5714 80.1837 80.1831 98.572 57.4999 98.572C34.8168 98.572 16.4285 80.1837 16.4285 57.5006C16.4285 34.8175 34.8168 16.4292 57.4999 16.4292C80.1831 16.4292 98.5714 34.8175 98.5714 57.5006Z" fill="#F2E9D8"/>
<path d="M57.5 19.3325C52.8465 19.3325 49.0732 36.3099 49.0732 57.2528C49.0732 78.1956 52.8465 95.173 57.5 95.173C62.1534 95.173 65.9267 78.1956 65.9267 57.2528C65.9267 36.3099 62.1534 19.3325 57.5 19.3325ZM58.0818 93.033C57.5496 93.7469 57.0175 93.2113 57.0175 93.2113C54.8744 90.7136 53.8029 86.0734 53.8029 86.0734C50.0544 73.9391 50.9466 47.8857 50.9466 47.8857C52.7082 27.202 55.9128 22.3159 57.0033 21.2311C57.1147 21.1204 57.2613 21.0528 57.4174 21.0401C57.5735 21.0274 57.729 21.0705 57.8566 21.1617C59.4389 22.2895 60.766 27.006 60.766 27.006C64.6848 41.6387 64.3299 55.3792 64.3299 55.3792C64.6848 67.3352 62.3662 80.7187 62.3662 80.7187C60.5814 90.8898 58.0818 93.033 58.0818 93.033Z" fill="#F2E9D8"/>
<path d="M90.438 38.0898C88.1043 33.9654 71.4678 39.2023 53.2681 49.7853C35.0684 60.3684 22.2306 72.2918 24.5626 76.4145C26.8945 80.5371 43.5327 75.302 61.7324 64.719C79.9321 54.1359 92.77 42.2125 90.438 38.0898ZM26.7156 75.8487C25.8222 75.7346 26.024 74.9899 26.024 74.9899C27.12 71.8296 30.6077 68.5351 30.6077 68.5351C39.2724 59.0815 62.3511 46.7065 62.3511 46.7065C81.198 37.8143 87.0521 38.1895 88.5371 38.6041C88.6895 38.6473 88.822 38.7437 88.911 38.8764C89 39.0091 89.0399 39.1695 89.0234 39.3291C88.8449 41.3019 85.4048 44.8598 85.4048 44.8598C74.6665 55.7307 62.5529 62.3612 62.5529 62.3612C52.3458 68.7197 39.5587 73.4258 39.5587 73.4258C29.8289 76.9813 26.716 75.8487 26.716 75.8487H26.7156Z" fill="#F2E9D8"/>
<path d="M90.4339 76.4339C92.7736 72.3453 80.0336 60.4398 61.9907 49.8416C43.9477 39.2435 27.3984 33.9739 25.0608 38.0695C22.7231 42.1651 35.461 54.0637 53.5144 64.6618C71.5677 75.2599 88.0962 80.5299 90.4339 76.4339ZM26.6112 39.6493C26.2655 38.8191 26.9951 38.6192 26.9951 38.6192C30.2251 38.0012 34.7622 39.4095 34.7622 39.4095C47.1055 42.2572 69.1153 56.2251 69.1153 56.2251C86.0613 68.2388 88.6602 73.5306 89.0497 75.0327C89.0894 75.1867 89.074 75.35 89.0063 75.4937C88.9386 75.6374 88.8231 75.7523 88.6799 75.818C86.9129 76.6377 82.1802 75.4164 82.1802 75.4164C67.5933 71.4539 55.9274 64.1936 55.9274 64.1936C45.4455 58.466 35.0809 49.6529 35.0809 49.6529C27.2052 42.9347 26.6136 39.6584 26.6136 39.6584L26.6112 39.6493Z" fill="#F2E9D8"/>
<path d="M57.5003 61.4673C59.9641 61.4673 61.9615 59.5809 61.9615 57.2539C61.9615 54.9269 59.9641 53.0405 57.5003 53.0405C55.0364 53.0405 53.0391 54.9269 53.0391 57.2539C53.0391 59.5809 55.0364 61.4673 57.5003 61.4673Z" fill="#F2E9D8"/>
<path d="M75.8408 42.6293C77.2096 42.6293 78.3192 41.4087 78.3192 39.903C78.3192 38.3974 77.2096 37.1768 75.8408 37.1768C74.4719 37.1768 73.3623 38.3974 73.3623 39.903C73.3623 41.4087 74.4719 42.6293 75.8408 42.6293Z" fill="#F2E9D8"/>
<path d="M32.9636 51.0546C34.4693 51.0546 35.6899 49.834 35.6899 48.3283C35.6899 46.8227 34.4693 45.6021 32.9636 45.6021C31.4579 45.6021 30.2373 46.8227 30.2373 48.3283C30.2373 49.834 31.4579 51.0546 32.9636 51.0546Z" fill="#F2E9D8"/>
<path d="M62.9521 84.7626C64.3209 84.7626 65.4305 83.6529 65.4305 82.2841C65.4305 80.9153 64.3209 79.8057 62.9521 79.8057C61.5833 79.8057 60.4736 80.9153 60.4736 82.2841C60.4736 83.6529 61.5833 84.7626 62.9521 84.7626Z" fill="#F2E9D8"/>
</svg>
