<svg width="83" height="83" viewBox="0 0 83 83" fill="none" xmlns="http://www.w3.org/2000/svg">
<g clip-path="url(#clip0_301_466)">
<path d="M-9.91821e-05 63.7574V57.3819H19.1272V44.63H25.5027L44.6301 28.6904V42.3523L41.4423 44.63H44.6301L63.7574 28.6904V42.3523L60.5697 44.6292H63.7574L82.8848 28.6904V82.8847H-9.91821e-05V76.5092H19.1272V73.3214H-9.91821e-05V66.9459H19.1272V63.7582H-9.91821e-05V63.7574ZM63.7574 74.9153C63.7574 75.7956 64.4711 76.5092 65.3513 76.5092H74.9154C75.7956 76.5092 76.5093 75.7956 76.5093 74.9153V68.5398C76.5093 67.6596 75.7956 66.9459 74.9154 66.9459H65.3521C64.4719 66.9459 63.7583 67.6596 63.7583 68.5398V74.9153H63.7574ZM63.7574 58.9757C63.7574 59.856 64.4711 60.5696 65.3513 60.5696H74.9154C75.7956 60.5696 76.5093 59.856 76.5093 58.9757V52.6002C76.5093 51.72 75.7956 51.0064 74.9154 51.0064H65.3521C64.4719 51.0064 63.7583 51.72 63.7583 52.6002V58.9757H63.7574ZM44.6301 74.9153C44.6301 75.7956 45.3437 76.5092 46.224 76.5092H55.788C56.6683 76.5092 57.3819 75.7956 57.3819 74.9153V68.5398C57.3819 67.6596 56.6683 66.9459 55.788 66.9459H46.224C45.3437 66.9459 44.6301 67.6596 44.6301 68.5398V74.9153ZM44.6301 58.9757C44.6301 59.856 45.3437 60.5696 46.224 60.5696H55.788C56.6683 60.5696 57.3819 59.856 57.3819 58.9757V52.6002C57.3819 51.72 56.6683 51.0064 55.788 51.0064H46.224C45.3437 51.0064 44.6301 51.72 44.6301 52.6002V58.9757ZM25.5027 74.9153C25.5027 75.7956 26.2164 76.5092 27.0966 76.5092H36.6607C37.5409 76.5092 38.2546 75.7956 38.2546 74.9153V68.5398C38.2546 67.6596 37.5409 66.9459 36.6607 66.9459H27.0966C26.2164 66.9459 25.5027 67.6596 25.5027 68.5398V74.9153ZM25.5027 58.9757C25.5027 59.856 26.2164 60.5696 27.0966 60.5696H36.6607C37.5409 60.5696 38.2546 59.856 38.2546 58.9757V52.6002C38.2546 51.72 37.5409 51.0064 36.6607 51.0064H27.0966C26.2164 51.0064 25.5027 51.72 25.5027 52.6002V58.9757Z" fill="#F2E9D8"/>
<path d="M12.0016 9.56348L15.9395 54.1945H-0.000136375L3.93773 9.56348H12.0016Z" fill="#F2E9D8"/>
<path d="M22.9526 15.9395L25.5029 41.4423H15.9397L18.49 15.9395H22.9526Z" fill="#F2E9D8"/>
<path d="M18.8078 12.7521L19.1269 9.56348H22.3147L22.6338 12.7521H18.8078Z" fill="#F2E9D8"/>
<path d="M4.21947 6.3755L4.78143 0H11.1578L11.7197 6.3755H4.21947Z" fill="#F2E9D8"/>
</g>
<defs>
<clipPath id="clip0_301_466">
<rect width="82.8849" height="82.8849" fill="white" transform="matrix(-1 0 0 1 82.8848 0)"/>
</clipPath>
</defs>
</svg>
