<svg width="100" height="100" viewBox="0 0 100 100" fill="none" xmlns="http://www.w3.org/2000/svg">
<g filter="url(#filter0_d_301_767)">
<circle cx="50" cy="46" r="20" fill="#FEFBFF"/>
<path d="M59 55V52.8889C59 51.7691 58.5522 50.6951 57.7552 49.9033C56.9582 49.1115 55.8772 48.6667 54.75 48.6667H46.25C45.1228 48.6667 44.0418 49.1115 43.2448 49.9033C42.4478 50.6951 42 51.7691 42 52.8889V55M54.75 40.2222C54.75 42.5541 52.8472 44.4444 50.5 44.4444C48.1528 44.4444 46.25 42.5541 46.25 40.2222C46.25 37.8904 48.1528 36 50.5 36C52.8472 36 54.75 37.8904 54.75 40.2222Z" stroke="url(#paint0_linear_301_767)" stroke-width="2" stroke-linecap="round" stroke-linejoin="round"/>
</g>
<defs>
<filter id="filter0_d_301_767" x="0" y="0" width="100" height="100" filterUnits="userSpaceOnUse" color-interpolation-filters="sRGB">
<feFlood flood-opacity="0" result="BackgroundImageFix"/>
<feColorMatrix in="SourceAlpha" type="matrix" values="0 0 0 0 0 0 0 0 0 0 0 0 0 0 0 0 0 0 127 0" result="hardAlpha"/>
<feOffset dy="4"/>
<feGaussianBlur stdDeviation="15"/>
<feComposite in2="hardAlpha" operator="out"/>
<feColorMatrix type="matrix" values="0 0 0 0 0.698039 0 0 0 0 0.729412 0 0 0 0 0.568627 0 0 0 0.3 0"/>
<feBlend mode="normal" in2="BackgroundImageFix" result="effect1_dropShadow_301_767"/>
<feBlend mode="normal" in="SourceGraphic" in2="effect1_dropShadow_301_767" result="shape"/>
</filter>
<linearGradient id="paint0_linear_301_767" x1="54.1429" y1="36.7677" x2="47.0698" y2="43.9425" gradientUnits="userSpaceOnUse">
<stop stop-color="#B2BA91"/>
<stop offset="1" stop-color="#53593E"/>
</linearGradient>
</defs>
</svg>
