<svg width="652" height="245" viewBox="0 0 652 245" fill="none" xmlns="http://www.w3.org/2000/svg">
<line x1="30" y1="121.806" x2="622" y2="121.806" stroke="#B2BA91" stroke-width="10" stroke-dasharray="10 10"/>
<g filter="url(#filter0_d_343_983)">
<rect x="446" y="34.1621" width="176" height="176" rx="40" fill="#FEFBFF"/>
</g>
<path d="M583.139 121.814V182.657H485.791V121.814M534.465 182.657V91.3926M534.465 91.3926H507.086C503.051 91.3926 499.183 89.79 496.33 86.9375C493.477 84.0849 491.875 80.216 491.875 76.1819C491.875 72.1478 493.477 68.2789 496.33 65.4263C499.183 62.5737 503.051 60.9712 507.086 60.9712C528.381 60.9712 534.465 91.3926 534.465 91.3926ZM534.465 91.3926H561.844C565.878 91.3926 569.747 89.79 572.6 86.9375C575.452 84.0849 577.055 80.216 577.055 76.1819C577.055 72.1478 575.452 68.2789 572.6 65.4263C569.747 62.5737 565.878 60.9712 561.844 60.9712C540.549 60.9712 534.465 91.3926 534.465 91.3926ZM473.622 91.3926H595.308V121.814H473.622V91.3926Z" stroke="url(#paint0_linear_343_983)" stroke-width="6" stroke-linecap="round" stroke-linejoin="round"/>
<g filter="url(#filter1_d_343_983)">
<rect x="238" y="26.1621" width="176" height="176" rx="40" fill="#FEFBFF"/>
</g>
<path d="M305.121 145.817L267.767 167.152V81.8113L305.121 60.4761M305.121 145.817L347.811 167.152M305.121 145.817V60.4761M347.811 167.152L385.164 145.817V60.4761L347.811 81.8113M347.811 167.152V81.8113M347.811 81.8113L305.121 60.4761" stroke="url(#paint1_linear_343_983)" stroke-width="6" stroke-linecap="round" stroke-linejoin="round"/>
<g filter="url(#filter2_d_343_983)">
<rect x="30" y="26.1621" width="176" height="176" rx="40" fill="#FEFBFF"/>
</g>
<path d="M94.1822 168.224H142.213M118.198 144.161V168.224M70.1667 59.9399H166.229C172.86 59.9399 178.236 65.3267 178.236 71.9715V132.129C178.236 138.774 172.86 144.161 166.229 144.161H70.1667C63.535 144.161 58.1589 138.774 58.1589 132.129V71.9715C58.1589 65.3267 63.535 59.9399 70.1667 59.9399ZM125.41 102.289C125.41 106.164 122.301 109.306 118.466 109.306C114.63 109.306 111.521 106.164 111.521 102.289C111.521 98.413 114.63 95.2712 118.466 95.2712C122.301 95.2712 125.41 98.413 125.41 102.289ZM135.595 109.306C135.287 110.012 135.195 110.794 135.331 111.553C135.467 112.312 135.825 113.012 136.359 113.563L136.498 113.704C136.928 114.138 137.27 114.654 137.503 115.222C137.736 115.79 137.856 116.399 137.856 117.014C137.856 117.629 137.736 118.237 137.503 118.805C137.27 119.373 136.928 119.889 136.498 120.324C136.068 120.759 135.557 121.104 134.995 121.339C134.433 121.575 133.831 121.696 133.223 121.696C132.614 121.696 132.012 121.575 131.45 121.339C130.888 121.104 130.377 120.759 129.947 120.324L129.808 120.183C129.263 119.644 128.57 119.282 127.819 119.145C127.068 119.007 126.293 119.1 125.595 119.411C124.911 119.708 124.327 120.2 123.915 120.828C123.504 121.455 123.283 122.191 123.28 122.944V123.341C123.28 124.582 122.793 125.772 121.924 126.649C121.056 127.527 119.879 128.02 118.651 128.02C117.423 128.02 116.245 127.527 115.377 126.649C114.509 125.772 114.021 124.582 114.021 123.341V123.131C114.003 122.356 113.755 121.606 113.309 120.976C112.864 120.346 112.241 119.866 111.521 119.599C110.823 119.287 110.049 119.194 109.298 119.332C108.547 119.469 107.854 119.831 107.308 120.37L107.169 120.511C106.739 120.946 106.229 121.291 105.667 121.526C105.105 121.762 104.502 121.883 103.894 121.883C103.286 121.883 102.683 121.762 102.121 121.526C101.559 121.291 101.048 120.946 100.619 120.511C100.188 120.076 99.8466 119.56 99.6136 118.992C99.3806 118.424 99.2607 117.816 99.2607 117.201C99.2607 116.586 99.3806 115.977 99.6136 115.409C99.8466 114.841 100.188 114.325 100.619 113.891L100.757 113.751C101.291 113.199 101.649 112.499 101.785 111.74C101.921 110.981 101.829 110.199 101.521 109.493C101.228 108.801 100.741 108.211 100.12 107.796C99.4986 107.38 98.7708 107.157 98.0259 107.154H97.6324C96.4046 107.154 95.227 106.661 94.3588 105.784C93.4906 104.907 93.0028 103.717 93.0028 102.476C93.0028 101.235 93.4906 100.045 94.3588 99.1677C95.227 98.2904 96.4046 97.7975 97.6324 97.7975H97.8408C98.6069 97.7793 99.35 97.5287 99.9734 97.0782C100.597 96.6276 101.072 95.998 101.336 95.2711C101.644 94.5656 101.736 93.783 101.6 93.0242C101.464 92.2654 101.106 91.5652 100.572 91.0139L100.433 90.8735C100.003 90.439 99.6614 89.9231 99.4284 89.3551C99.1955 88.7872 99.0755 88.1784 99.0755 87.5636C99.0755 86.9488 99.1955 86.34 99.4284 85.7721C99.6614 85.2041 100.003 84.6882 100.433 84.2537C100.863 83.8187 101.374 83.4736 101.936 83.2382C102.498 83.0027 103.1 82.8816 103.709 82.8816C104.317 82.8816 104.92 83.0027 105.482 83.2382C106.044 83.4736 106.554 83.8187 106.984 84.2537L107.123 84.394C107.669 84.9333 108.362 85.295 109.112 85.4326C109.863 85.5702 110.638 85.4773 111.336 85.1659H111.521C112.206 84.8694 112.79 84.3771 113.201 83.7495C113.612 83.1219 113.833 82.3865 113.836 81.6338V81.2361C113.836 79.9954 114.324 78.8054 115.192 77.928C116.06 77.0507 117.238 76.5578 118.466 76.5578C119.694 76.5578 120.871 77.0507 121.739 77.928C122.608 78.8054 123.095 79.9954 123.095 81.2361V81.4467C123.098 82.1994 123.319 82.9348 123.73 83.5624C124.142 84.1899 124.725 84.6823 125.41 84.9788C126.108 85.2902 126.883 85.3831 127.634 85.2455C128.385 85.1079 129.077 84.7461 129.623 84.2069L129.762 84.0665C130.192 83.6316 130.702 83.2865 131.264 83.051C131.827 82.8156 132.429 82.6944 133.037 82.6944C133.646 82.6944 134.248 82.8156 134.81 83.051C135.372 83.2865 135.883 83.6316 136.313 84.0665C136.743 84.501 137.085 85.017 137.318 85.5849C137.551 86.1529 137.671 86.7616 137.671 87.3765C137.671 87.9913 137.551 88.6 137.318 89.168C137.085 89.7359 136.743 90.2519 136.313 90.6864L136.174 90.8267C135.64 91.378 135.282 92.0782 135.146 92.837C135.01 93.5959 135.102 94.3785 135.41 95.084V95.2711C135.703 95.963 136.191 96.5531 136.812 96.9687C137.433 97.3843 138.161 97.6073 138.905 97.6103H139.299C140.527 97.6103 141.704 98.1032 142.573 98.9806C143.441 99.8579 143.929 101.048 143.929 102.289C143.929 103.529 143.441 104.719 142.573 105.597C141.704 106.474 140.527 106.967 139.299 106.967H139.091C138.346 106.97 137.618 107.193 136.997 107.609C136.376 108.024 135.889 108.614 135.595 109.306Z" stroke="url(#paint2_linear_343_983)" stroke-width="6" stroke-linecap="round" stroke-linejoin="round"/>
<defs>
<filter id="filter0_d_343_983" x="416" y="8.16211" width="236" height="236" filterUnits="userSpaceOnUse" color-interpolation-filters="sRGB">
<feFlood flood-opacity="0" result="BackgroundImageFix"/>
<feColorMatrix in="SourceAlpha" type="matrix" values="0 0 0 0 0 0 0 0 0 0 0 0 0 0 0 0 0 0 127 0" result="hardAlpha"/>
<feOffset dy="4"/>
<feGaussianBlur stdDeviation="15"/>
<feComposite in2="hardAlpha" operator="out"/>
<feColorMatrix type="matrix" values="0 0 0 0 0.698039 0 0 0 0 0.729412 0 0 0 0 0.568627 0 0 0 0.3 0"/>
<feBlend mode="normal" in2="BackgroundImageFix" result="effect1_dropShadow_343_983"/>
<feBlend mode="normal" in="SourceGraphic" in2="effect1_dropShadow_343_983" result="shape"/>
</filter>
<filter id="filter1_d_343_983" x="208" y="0.162109" width="236" height="236" filterUnits="userSpaceOnUse" color-interpolation-filters="sRGB">
<feFlood flood-opacity="0" result="BackgroundImageFix"/>
<feColorMatrix in="SourceAlpha" type="matrix" values="0 0 0 0 0 0 0 0 0 0 0 0 0 0 0 0 0 0 127 0" result="hardAlpha"/>
<feOffset dy="4"/>
<feGaussianBlur stdDeviation="15"/>
<feComposite in2="hardAlpha" operator="out"/>
<feColorMatrix type="matrix" values="0 0 0 0 0.698039 0 0 0 0 0.729412 0 0 0 0 0.568627 0 0 0 0.3 0"/>
<feBlend mode="normal" in2="BackgroundImageFix" result="effect1_dropShadow_343_983"/>
<feBlend mode="normal" in="SourceGraphic" in2="effect1_dropShadow_343_983" result="shape"/>
</filter>
<filter id="filter2_d_343_983" x="0" y="0.162109" width="236" height="236" filterUnits="userSpaceOnUse" color-interpolation-filters="sRGB">
<feFlood flood-opacity="0" result="BackgroundImageFix"/>
<feColorMatrix in="SourceAlpha" type="matrix" values="0 0 0 0 0 0 0 0 0 0 0 0 0 0 0 0 0 0 127 0" result="hardAlpha"/>
<feOffset dy="4"/>
<feGaussianBlur stdDeviation="15"/>
<feComposite in2="hardAlpha" operator="out"/>
<feColorMatrix type="matrix" values="0 0 0 0 0.698039 0 0 0 0 0.729412 0 0 0 0 0.568627 0 0 0 0.3 0"/>
<feBlend mode="normal" in2="BackgroundImageFix" result="effect1_dropShadow_343_983"/>
<feBlend mode="normal" in="SourceGraphic" in2="effect1_dropShadow_343_983" result="shape"/>
</filter>
<linearGradient id="paint0_linear_343_983" x1="595.632" y1="61.3113" x2="524.108" y2="207.465" gradientUnits="userSpaceOnUse">
<stop stop-color="#B2BA91"/>
<stop offset="1" stop-color="#53593E"/>
</linearGradient>
<linearGradient id="paint1_linear_343_983" x1="385.54" y1="60.4611" x2="268.161" y2="166.783" gradientUnits="userSpaceOnUse">
<stop stop-color="#B2BA91"/>
<stop offset="1" stop-color="#53593E"/>
</linearGradient>
<linearGradient id="paint2_linear_343_983" x1="178" y1="59.6102" x2="56.9423" y2="167.216" gradientUnits="userSpaceOnUse">
<stop stop-color="#B2BA91"/>
<stop offset="1" stop-color="#53593E"/>
</linearGradient>
</defs>
</svg>
