<svg width="696" height="891" viewBox="0 0 696 891" fill="none" xmlns="http://www.w3.org/2000/svg">
<g opacity="0.9">
<path d="M381.054 6.62036L381.137 11.2697L381.054 6.62036ZM343.844 45.1578L339.194 45.2387L343.844 45.1578ZM493.602 4.65585L493.527 0.00661087L493.602 4.65585ZM532.141 41.8712L536.79 41.7903L532.141 41.8712ZM532.782 78.6292L528.132 78.7102L528.197 82.3148L531.703 83.1518L532.782 78.6292ZM630.655 117.202L628.358 121.245L631.492 123.025L633.994 120.432L630.655 117.202ZM656.202 90.7406L659.55 93.9714L656.202 90.7406ZM709.77 89.8059L706.543 93.1511L709.77 89.8059ZM790.744 167.999L793.971 164.655L790.744 167.999ZM791.674 221.564L788.326 218.334L791.674 221.564ZM766.109 248.034L762.77 244.805L760.268 247.398L762.156 250.47L766.109 248.034ZM808.098 344.487L803.615 345.725L804.573 349.198L808.172 349.136L808.098 344.487ZM844.842 343.845L844.926 348.494L844.842 343.845ZM883.381 381.06L888.031 380.979L883.381 381.06ZM885.343 493.607L889.993 493.525L885.343 493.607ZM848.134 532.144L848.209 536.793L848.134 532.144ZM811.372 532.786L811.288 528.137L807.689 528.199L806.852 531.706L811.372 532.786ZM772.795 630.651L768.759 628.356L766.974 631.492L769.568 633.996L772.795 630.651ZM799.263 656.206L802.49 652.861L799.263 656.206ZM800.193 709.771L803.541 713.001L800.193 709.771ZM722.008 790.743L725.347 793.973L722.008 790.743ZM668.441 791.678L671.668 788.334L668.441 791.678ZM641.964 766.114L645.2 762.769L642.605 760.265L639.527 762.153L641.964 766.114ZM545.514 808.095L544.277 803.614L540.808 804.573L540.864 808.177L545.514 808.095ZM546.156 844.848L541.506 844.929L546.156 844.848ZM508.946 883.384L509.021 888.034L508.946 883.384ZM396.398 885.346L396.473 889.996L396.398 885.346ZM357.859 848.134L362.509 848.053L357.859 848.134ZM357.218 811.372L361.868 811.292L361.803 807.687L358.297 806.85L357.218 811.372ZM259.354 772.802L261.642 768.758L258.508 766.978L256.006 769.572L259.354 772.802ZM233.798 799.266L237.137 802.496L233.798 799.266ZM180.23 800.2L177.003 803.546L180.23 800.2ZM99.2557 722.007L96.0286 725.352L99.2557 722.007ZM98.3257 668.442L101.674 671.672L98.3257 668.442ZM123.891 641.97L127.23 645.2L129.741 642.606L127.853 639.534L123.891 641.97ZM81.9019 545.518L86.3846 544.281L85.4266 540.806L81.8276 540.869L81.9019 545.518ZM45.1579 546.16L45.2323 550.809L45.1579 546.16ZM6.61884 508.945L1.96887 509.026L6.61884 508.945ZM4.65657 396.398L0.00658876 396.479L4.65657 396.398ZM41.8657 357.861L41.9494 362.51L41.8657 357.861ZM78.6284 357.22L78.7121 361.869L82.3112 361.806L83.1482 358.299L78.6284 357.22ZM117.195 259.351L121.241 261.647L123.026 258.512L120.432 256.007L117.195 259.351ZM90.7369 233.799L93.964 230.454L90.7369 233.799ZM89.8069 180.234L93.1456 183.464L89.8069 180.234ZM168.001 99.2621L171.34 102.492L168.001 99.2621ZM221.559 98.3275L218.332 101.672L221.559 98.3275ZM248.027 123.888L244.8 127.234L247.395 129.738L250.464 127.85L248.027 123.888ZM344.486 81.9066L345.723 86.3882L349.192 85.4284L349.136 81.8247L344.486 81.9066ZM380.979 1.97113C357.487 2.38107 338.785 21.7528 339.194 45.2387L348.494 45.0769C348.169 26.7258 362.788 11.59 381.137 11.2697L380.979 1.97113ZM493.527 0.00661087L380.979 1.97113L381.137 11.2697L493.685 9.30517L493.527 0.00661087ZM536.79 41.7903C536.381 18.3036 517.01 -0.403331 493.527 0.00661087L493.685 9.30517C512.034 8.98479 527.174 23.6014 527.491 41.9521L536.79 41.7903ZM537.432 78.5474L536.79 41.7903L527.491 41.9521L528.132 78.7102L537.432 78.5474ZM632.943 113.157C602.309 95.7709 569.034 82.5027 533.861 74.1058L531.703 83.1518C566.011 91.3413 598.468 104.284 628.358 121.245L632.943 113.157ZM652.863 87.5107L627.307 113.971L633.994 120.432L659.55 93.9714L652.863 87.5107ZM712.997 86.4607C696.099 70.144 669.175 70.6136 652.863 87.5107L659.55 93.9714C672.3 80.7682 693.337 80.4018 706.543 93.1511L712.997 86.4607ZM793.971 164.655L712.997 86.4607L706.543 93.1511L787.508 171.344L793.971 164.655ZM795.022 224.795C811.334 207.898 810.869 180.971 793.971 164.655L787.508 171.344C800.714 184.094 801.077 205.132 788.326 218.334L795.022 224.795ZM769.457 251.265L795.022 224.795L788.326 218.334L762.77 244.805L769.457 251.265ZM812.581 343.248C802.964 308.448 788.54 275.645 770.071 245.6L762.156 250.47C780.17 279.782 794.241 311.781 803.615 345.725L812.581 343.248ZM844.768 339.196L808.014 339.837L808.172 349.136L844.926 348.494L844.768 339.196ZM888.031 380.979C887.622 357.493 868.25 338.786 844.768 339.196L844.926 348.494C863.275 348.174 878.415 362.79 878.731 381.142L888.031 380.979ZM889.993 493.525L888.031 380.979L878.731 381.142L880.693 493.688L889.993 493.525ZM848.209 536.793C871.7 536.383 890.403 517.012 889.993 493.525L880.693 493.688C881.019 512.039 866.399 527.174 848.051 527.495L848.209 536.793ZM811.455 537.435L848.209 536.793L848.051 527.495L811.288 528.137L811.455 537.435ZM776.841 632.946C794.232 602.314 807.494 569.036 815.891 533.866L806.852 531.706C798.659 566.011 785.713 598.472 768.759 628.356L776.841 632.946ZM802.49 652.861L776.032 627.307L769.568 633.996L796.036 659.552L802.49 652.861ZM803.541 713.001C819.862 696.104 819.388 669.179 802.49 652.861L796.036 659.552C809.233 672.301 809.605 693.339 796.854 706.542L803.541 713.001ZM725.347 793.973L803.541 713.001L796.854 706.542L718.66 787.513L725.347 793.973ZM665.214 795.023C682.102 811.341 709.035 810.87 725.347 793.973L718.66 787.513C705.91 800.716 684.874 801.083 671.668 788.334L665.214 795.023ZM638.737 769.459L665.214 795.023L671.668 788.334L645.2 762.769L638.737 769.459ZM546.751 812.578C581.551 802.965 614.352 788.544 644.4 770.075L639.527 762.153C610.223 780.17 578.222 794.237 544.277 803.614L546.751 812.578ZM550.806 844.767L550.164 808.014L540.864 808.177L541.506 844.929L550.806 844.767ZM509.021 888.034C532.513 887.625 551.215 868.253 550.806 844.767L541.506 844.929C541.831 863.279 527.212 878.418 508.863 878.734L509.021 888.034ZM396.473 889.996L509.021 888.034L508.863 878.734L396.315 880.696L396.473 889.996ZM353.21 848.215C353.619 871.702 372.99 890.405 396.473 889.996L396.315 880.696C377.966 881.022 362.826 866.404 362.509 848.053L353.21 848.215ZM352.568 811.454L353.21 848.215L362.509 848.053L361.868 811.292L352.568 811.454ZM257.057 776.846C287.691 794.232 320.966 807.5 356.139 815.896L358.297 806.85C323.989 798.66 291.532 785.719 261.642 768.758L257.057 776.846ZM237.137 802.496L262.693 776.032L256.006 769.572L230.45 796.035L237.137 802.496ZM177.003 803.546C193.901 819.862 220.825 819.393 237.137 802.496L230.45 796.035C217.7 809.237 196.663 809.605 183.457 796.855L177.003 803.546ZM96.0286 725.352L177.003 803.546L183.457 796.855L102.492 718.662L96.0286 725.352ZM94.9777 665.212C78.6656 682.109 79.1306 709.035 96.0286 725.352L102.492 718.662C89.2861 705.913 88.9234 684.875 101.674 671.672L94.9777 665.212ZM120.543 638.74L94.9777 665.212L101.674 671.672L127.23 645.2L120.543 638.74ZM77.4194 546.757C87.0355 581.558 101.46 614.36 119.929 644.405L127.853 639.534C109.83 610.223 95.7682 578.225 86.3846 544.281L77.4194 546.757ZM45.2323 550.809L81.9857 550.168L81.8276 540.869L45.0741 541.511L45.2323 550.809ZM1.96887 509.026C2.37806 532.513 21.7499 551.219 45.2323 550.809L45.0741 541.511C26.7253 541.831 11.585 527.214 11.2688 508.864L1.96887 509.026ZM0.00658876 396.479L1.96887 509.026L11.2688 508.864L9.30654 396.317L0.00658876 396.479ZM41.7912 353.212C18.2995 353.621 -0.402609 372.993 0.00658876 396.479L9.30654 396.317C8.98104 377.967 23.6005 362.831 41.9494 362.51L41.7912 353.212ZM78.5446 352.57L41.7912 353.212L41.9494 362.51L78.7121 361.869L78.5446 352.57ZM113.159 257.056C95.7682 287.689 82.4971 320.968 74.1086 356.14L83.1482 358.299C91.3414 323.994 104.278 291.531 121.241 261.647L113.159 257.056ZM87.5098 237.144L113.968 262.697L120.432 256.007L93.964 230.454L87.5098 237.144ZM86.4589 177.003C70.1375 193.9 70.6118 220.826 87.5098 237.144L93.964 230.454C80.7674 217.704 80.3954 196.666 93.1456 183.464L86.4589 177.003ZM164.653 96.0322L86.4589 177.003L93.1456 183.464L171.34 102.492L164.653 96.0322ZM224.796 94.9823C207.898 78.6646 180.965 79.1352 164.653 96.0322L171.34 102.492C184.09 89.2898 205.126 88.9224 218.332 101.672L224.796 94.9823ZM251.263 120.544L224.796 94.9823L218.332 101.672L244.8 127.234L251.263 120.544ZM343.249 77.424C308.449 87.0364 275.639 101.458 245.6 119.928L250.464 127.85C279.777 109.832 311.778 95.7644 345.723 86.3882L343.249 77.424ZM339.194 45.2387L339.836 81.9875L349.136 81.8247L348.494 45.0769L339.194 45.2387ZM754.233 445.002C754.233 615.785 615.784 754.232 445 754.232V763.532C620.918 763.532 763.533 620.921 763.533 445.002H754.233ZM445 135.772C615.784 135.772 754.233 274.219 754.233 445.002H763.533C763.533 269.083 620.918 126.472 445 126.472V135.772ZM135.767 445.002C135.767 274.219 274.216 135.772 445 135.772V126.472C269.082 126.472 126.467 269.083 126.467 445.002H135.767ZM445 754.232C274.216 754.232 135.767 615.785 135.767 445.002H126.467C126.467 620.921 269.082 763.532 445 763.532V754.232Z" fill="url(#paint0_linear_301_657)"/>
<path d="M445 153.312C409.437 153.312 380.598 283.058 380.598 443.109C380.598 603.16 409.437 732.907 445 732.907C480.563 732.907 509.402 603.16 509.402 443.109C509.402 283.058 480.563 153.312 445 153.312ZM449.445 716.552C445.381 722.008 441.308 717.914 441.308 717.914C424.931 698.826 416.747 663.365 416.747 663.365C388.093 570.631 394.92 371.524 394.92 371.524C408.377 213.452 432.873 176.111 441.205 167.821C442.052 166.975 443.177 166.458 444.367 166.361C445.558 166.264 446.748 166.594 447.725 167.291C459.815 175.909 469.961 211.954 469.961 211.954C499.907 323.782 497.191 428.79 497.191 428.79C499.907 520.161 482.19 622.442 482.19 622.442C468.547 700.173 449.445 716.552 449.445 716.552Z" fill="#53593E"/>
<path d="M696.722 296.667C678.884 265.147 551.745 305.169 412.655 386.048C273.565 466.926 175.459 558.049 193.278 589.555C211.097 621.063 338.255 581.053 477.345 500.175C616.426 419.296 714.54 328.174 696.722 296.667ZM209.73 585.232C202.904 584.359 204.447 578.669 204.447 578.669C212.827 554.517 239.48 529.339 239.48 529.339C305.696 457.092 482.069 362.518 482.069 362.518C626.107 294.562 670.84 297.429 682.195 300.598C683.358 300.927 684.371 301.665 685.05 302.679C685.729 303.693 686.036 304.919 685.906 306.138C684.539 321.214 658.257 348.406 658.257 348.406C576.185 431.484 483.613 482.157 483.613 482.157C405.605 530.75 307.881 566.715 307.881 566.715C233.528 593.887 209.73 585.232 209.73 585.232Z" fill="#53593E"/>
<path d="M696.694 589.704C714.569 558.458 617.207 467.472 479.317 386.478C341.427 305.485 214.957 265.212 197.091 296.512C179.226 327.812 276.569 418.744 414.543 499.739C552.508 580.733 678.829 621.007 696.694 589.704ZM208.94 308.586C206.298 302.242 211.878 300.714 211.878 300.714C236.56 295.99 271.231 306.753 271.231 306.753C365.56 328.516 533.768 435.263 533.768 435.263C663.27 527.076 683.135 567.516 686.111 578.995C686.418 580.173 686.297 581.421 685.785 582.519C685.264 583.618 684.381 584.496 683.284 584.998C669.78 591.262 633.613 581.929 633.613 581.929C522.134 551.645 432.985 496.161 432.985 496.161C352.875 452.389 273.667 385.037 273.667 385.037C213.478 333.694 208.958 308.655 208.958 308.655L208.94 308.586Z" fill="#53593E"/>
<path d="M445 475.308C463.832 475.308 479.094 460.892 479.094 443.109C479.094 425.326 463.832 410.909 445 410.909C426.168 410.909 410.906 425.326 410.906 443.109C410.906 460.892 426.168 475.308 445 475.308Z" fill="#53593E"/>
<path d="M585.159 331.358C595.622 331.358 604.103 322.029 604.103 310.522C604.103 299.015 595.622 289.687 585.159 289.687C574.697 289.687 566.225 299.015 566.225 310.522C566.225 322.029 574.697 331.358 585.159 331.358Z" fill="#53593E"/>
<path d="M257.485 395.757C268.989 395.757 278.317 386.428 278.317 374.922C278.317 363.415 268.989 354.087 257.485 354.087C245.971 354.087 236.644 363.415 236.644 374.922C236.644 386.428 245.971 395.757 257.485 395.757Z" fill="#53593E"/>
<path d="M486.674 653.354C497.127 653.354 505.608 644.874 505.608 634.413C505.608 623.952 497.127 615.472 486.674 615.472C476.211 615.472 467.729 623.952 467.729 634.413C467.729 644.874 476.211 653.354 486.674 653.354Z" fill="#53593E"/>
</g>
<defs>
<linearGradient id="paint0_linear_301_657" x1="444.079" y1="36.8501" x2="444.079" y2="832.372" gradientUnits="userSpaceOnUse">
<stop stop-color="#53593E" stop-opacity="0"/>
<stop offset="0.493844" stop-color="#53593E"/>
<stop offset="1" stop-color="#53593E" stop-opacity="0"/>
</linearGradient>
</defs>
</svg>
