<svg width="72" height="72" viewBox="0 0 72 72" fill="none" xmlns="http://www.w3.org/2000/svg">
<path d="M0 15C0 6.71573 6.71573 0 15 0H57C65.2843 0 72 6.71573 72 15V57C72 65.2843 65.2843 72 57 72H15C6.71573 72 0 65.2843 0 57V15Z" fill="#FEFBFF"/>
<path d="M36 18C26.1003 18 18 26.1003 18 36C18 45.8997 26.1003 54 36 54C45.8997 54 54 45.8997 54 36C54 26.1003 45.8997 18 36 18ZM32.6249 49.0512C26.7754 47.5894 22.4995 42.301 22.4995 36C22.4995 32.0616 24.2988 28.4629 26.9989 25.9864V34.8757C26.9989 35.4389 27.2246 36 27.6739 36.4515L30.3741 39.1516V45.0011C30.3741 46.2393 31.3866 47.2519 32.6249 47.2519V49.0512ZM39.3751 49.0512V47.2498C40.6134 47.2498 41.6259 46.2372 41.6259 44.999V41.6238C41.6259 39.7105 40.1641 38.2487 38.2508 38.2487H35.7764L31.5005 33.9749V32.6249H36C37.2383 32.6249 38.2508 31.6123 38.2508 30.3741V25.8746C39.4891 25.8746 40.5016 24.8621 40.5016 23.6238V23.2863C44.326 24.6363 47.3637 27.6739 48.7137 31.4984H48.3762C47.1379 31.4984 46.1254 32.5109 46.1254 33.7492C46.1254 34.9875 47.1379 36 48.3762 36C48.8255 36 49.163 35.8882 49.5005 35.6625V36C49.5005 42.301 45.2247 47.5872 39.3751 49.0512Z" fill="url(#paint0_radial_364_581)"/>
<defs>
<radialGradient id="paint0_radial_364_581" cx="0" cy="0" r="1" gradientUnits="userSpaceOnUse" gradientTransform="translate(36.332 18.332) rotate(90.5333) scale(35.6695)">
<stop stop-color="#B2BA91"/>
<stop offset="1" stop-color="#53593E"/>
</radialGradient>
</defs>
</svg>
